<?xml version="1.0" encoding="UTF-8" standalone="no"?>
<!-- Created with Inkscape (http://www.inkscape.org/) -->

<svg
   width="45mm"
   height="45mm"
   viewBox="0 0 75 75"
   version="1.1"
   id="svg1"
   xml:space="preserve"
   xmlns="http://www.w3.org/2000/svg"
   xmlns:svg="http://www.w3.org/2000/svg"><defs
     id="defs1" /><g
     id="layer1"
     transform="translate(33.655709,-68.039221)"><path
       style="fill:#000000"
       d="M 0.26641196,142.93718 C -1.021385,142.81846 -3.241145,142.50104 -3.991669,142.32829 c -2.10051,-0.48348 -4.503957,-1.16979 -5.032643,-1.4371 -0.135081,-0.0683 -0.414718,-0.17819 -0.621417,-0.2442 -0.206699,-0.066 -0.64112,-0.24078 -0.965381,-0.38838 -0.32426,-0.14759 -0.615537,-0.26835 -0.647281,-0.26835 -0.113936,0 -2.428045,-1.16781 -2.458676,-1.24077 -0.01722,-0.041 -0.07514,-0.0746 -0.128707,-0.0746 -0.360331,0 -3.56661,-2.10846 -5.465244,-3.59396 -1.864871,-1.45909 -5.230398,-4.80955 -6.404592,-6.37593 -0.101283,-0.13511 -0.483517,-0.64246 -0.849408,-1.12745 -1.89202,-2.50785 -3.648117,-5.66563 -4.696459,-8.44508 -0.126688,-0.33588 -0.271089,-0.69526 -0.32089,-0.79861 -0.07704,-0.15987 -0.542778,-1.64719 -0.867909,-2.77164 -1.322353,-4.57328 -1.612869,-13.09419 -0.591011,-17.334495 0.07472,-0.31005 0.24707,-1.07108 0.383006,-1.69117 0.135936,-0.6201 0.279115,-1.169733 0.318176,-1.221408 0.03906,-0.05167 0.141986,-0.382934 0.228723,-0.736132 0.175049,-0.712805 0.9778,-2.940186 1.332538,-3.697373 0.125599,-0.268092 0.228363,-0.517399 0.228363,-0.554015 0,-0.102468 1.698204,-3.460998 1.777242,-3.514843 0.03831,-0.02609 0.192834,-0.279981 0.343398,-0.564192 0.150563,-0.284211 0.297335,-0.537886 0.326158,-0.563724 0.02882,-0.02584 0.189765,-0.272945 0.357648,-0.549129 0.167883,-0.276184 0.345374,-0.550999 0.394423,-0.610701 0.04905,-0.0597 0.371653,-0.510201 0.716898,-1.00111 0.345244,-0.49091 0.654296,-0.913703 0.686781,-0.93954 0.03249,-0.02584 0.120032,-0.135459 0.194549,-0.243603 0.952571,-1.382445 3.79329,-4.295419 5.717964,-5.863403 0.222004,-0.180861 0.591962,-0.487386 0.822127,-0.681166 0.230166,-0.19378 0.448053,-0.352328 0.484194,-0.352328 0.03614,0 0.170978,-0.0954 0.299636,-0.212001 0.292542,-0.265125 2.562071,-1.770824 3.005566,-1.994016 0.180862,-0.09102 0.392258,-0.220246 0.46977,-0.28717 0.191553,-0.165386 3.023527,-1.581036 3.656634,-1.827883 0.280048,-0.109189 0.692543,-0.282059 0.916657,-0.384155 0.665016,-0.302949 1.889602,-0.733925 2.943025,-1.035756 0.542584,-0.155463 1.071075,-0.320753 1.174424,-0.36731 0.103349,-0.04656 0.695259,-0.192725 1.315355,-0.324816 0.620096,-0.132092 1.296565,-0.281185 1.503263,-0.331318 3.58960396,-0.870624 11.461169,-0.849627 15.151754,0.04042 0.296205,0.07143 0.940208,0.220545 1.431117,0.331356 0.49091,0.110811 0.977121,0.237828 1.080471,0.28226 0.103349,0.04443 0.674119,0.228213 1.268378,0.408401 1.167322,0.353951 2.080442,0.688106 2.881109,1.054341 0.27874,0.127498 0.53258,0.231814 0.56409,0.231814 0.0532,0 2.159625,1.038465 2.473895,1.219646 1.42645,0.822363 1.95449,1.135539 2.58373,1.532396 0.70874,0.446996 2.27742,1.586999 2.92367,2.124699 0.16112,0.134062 0.45322,0.370587 0.64912,0.525611 1.90503,1.507592 5.21779,4.96607 6.46917,6.753728 0.14891,0.212724 0.29928,0.407911 0.33417,0.433749 0.0631,0.04673 1.4796,2.191241 1.86177,2.818618 0.41697,0.684513 1.80301,3.356489 1.99429,3.844542 0.10975,0.280047 0.27648,0.6817 0.37051,0.892562 0.094,0.210862 0.26201,0.637061 0.37331,0.947109 0.1113,0.310048 0.24052,0.648283 0.28714,0.751632 0.1116,0.247369 0.43699,1.299001 0.56688,1.832102 0.0567,0.232536 0.14373,0.507351 0.19351,0.6107 0.24582,0.510406 0.9253,4.149766 1.1402,6.107001 0.16999,1.54822 0.16732,7.25831 -0.004,8.64378 -0.22781,1.84192 -0.8851,5.11329 -1.13265,5.63723 -0.0488,0.10335 -0.22284,0.65298 -0.3867,1.2214 -0.16386,0.56843 -0.32878,1.07578 -0.36649,1.12745 -0.0377,0.0517 -0.18772,0.43219 -0.33335,0.84559 -0.14564,0.41339 -0.30019,0.79756 -0.34345,0.85369 -0.0433,0.0561 -0.14414,0.28868 -0.22417,0.51675 -0.15618,0.44507 -1.77627,3.70381 -1.95776,3.93796 -0.0601,0.0775 -0.19047,0.2889 -0.28976,0.46976 -0.31162,0.56766 -1.56737,2.45966 -2.11304,3.18368 -0.28764,0.38164 -0.60517,0.80443 -0.70563,0.93954 -2.27859,3.06447 -6.82992,7.03481 -10.25511,8.94602 -0.30517,0.17028 -0.57599,0.3329 -0.60183,0.36138 -0.13279,0.14637 -2.840945,1.50503 -3.568615,1.79035 -0.28332,0.11108 -0.72725,0.29887 -0.98652,0.4173 -1.138013,0.51982 -4.201815,1.45011 -5.920722,1.79776 -0.671771,0.13587 -1.403562,0.28406 -1.626202,0.32932 -1.854392,0.37695 -8.051871,0.68223 -10.07106404,0.49607 z M 8.064589,138.31151 c 1.431961,-0.20042 3.640697,-0.60162 4.415836,-0.80211 0.866305,-0.22407 2.76548,-0.81866 2.865446,-0.89711 0.05176,-0.0406 0.26322,-0.12697 0.469919,-0.1919 0.90787,-0.28521 4.865675,-2.249 5.414655,-2.68666 0.0707,-0.0564 0.36116,-0.23757 0.64537,-0.4026 0.28421,-0.16504 0.74928,-0.46942 1.03349,-0.6764 0.28421,-0.20698 0.62245,-0.44813 0.75163,-0.53588 0.48285,-0.32797 1.69208,-1.30306 2.54365,-2.05111 0.74697,-0.65618 2.29094,-2.25465 3.00927,-3.11551 0.37642,-0.4511 0.72907,-0.86246 0.78366,-0.91413 0.0546,-0.0517 0.24507,-0.30535 0.42327,-0.56373 0.1782,-0.25837 0.35157,-0.49091 0.38526,-0.51674 0.0337,-0.0258 0.18385,-0.23281 0.33368,-0.45994 0.14983,-0.22713 0.47271,-0.71334 0.71752,-1.08047 0.24481,-0.36713 0.55688,-0.87891 0.69349,-1.13728 0.13661,-0.25837 0.27557,-0.49091 0.3088,-0.51675 0.0658,-0.0512 1.19673,-2.32303 1.49663,-3.00652 2.8665,-6.53289 3.51923,-14.19518 1.81714,-21.330905 -0.50373,-2.111806 -1.2051,-2.556372 -4.24442,-2.69036 -2.7719,-0.1222 -3.47569,0.134056 -5.2224,1.90154 -1.81312,1.83468 -2.53691,3.20477 -2.90016,5.489875 -0.078,0.49091 -0.29348,1.63245 -0.47875,2.53675 -0.18527,0.90431 -0.43762,2.17269 -0.56077,2.81862 -0.24048,1.26136 -0.39209,1.90862 -0.51718,2.20792 -0.0432,0.10335 -0.15009,0.42044 -0.23756,0.70466 -0.6255,2.03254 -2.30381,4.36329 -4.209595,5.8461 -0.2142,0.16666 -0.410603,0.32678 -0.43644,0.35582 -0.374382,0.42077 -2.651122,1.53761 -3.632227,1.78177 -2.304866,0.57359 -6.310075,0.38543 -7.971085,-0.37448 -1.630559,-0.74598 -2.074789,-1.02573 -3.382342,-2.13003 -0.805353,-0.68016 -2.17984004,-2.13563 -2.95617804,-3.13034 -0.262148,-0.33588 -0.51262596,-0.65587 -0.55661896,-0.71109 -0.592688,-0.7439 -1.584432,-2.75056 -1.844411,-3.73192 -0.18849,-0.7115 -1.230958,-0.88531 -1.81385,-0.30242 -0.03368,0.0337 -0.09013,1.16803 -0.125453,2.52078 -0.09527,3.64878 -0.123139,3.80994 -1.270399,7.34514 -0.407316,1.25512 -1.559469,3.77876 -1.893584,4.14766 -0.08679,0.0958 -0.237042,0.30106 -0.333894,0.45609 -1.483272,2.37417 -3.954914,4.35003 -6.587092,5.26581 -0.413397,0.14383 -0.794934,0.29406 -0.847859,0.33385 -0.143769,0.10809 -1.837982,0.43333 -2.933787,0.56321 -1.068138,0.1266 -1.091334,0.14277 -0.661012,0.46092 0.166109,0.12281 0.616182,0.52185 1.000161,0.88675 0.38398,0.3649 0.767495,0.72837 0.852256,0.80772 0.08476,0.0793 0.321727,0.26719 0.52659,0.41743 0.204864,0.15024 0.41476,0.31903 0.466434,0.37508 0.167677,0.18189 1.200914,0.93219 2.066987,1.50097 0.465072,0.30544 0.951284,0.62502 1.08047,0.7102 0.42714,0.28162 2.665345,1.44994 3.382342,1.76554 0.38756,0.1706 0.833161,0.36928 0.990224,0.44152 0.548184,0.25212 2.53786,0.96921 3.14375,1.13302 0.335885,0.0908 0.65298,0.19586 0.704654,0.23345 0.05168,0.0376 0.601306,0.18332 1.221402,0.32386 0.620096,0.14054 1.36854,0.31318 1.66321,0.38365 0.463651,0.11088 2.01167996,0.32829 3.22239496,0.45256 1.02004004,0.1047 5.96761804,-0.0412 7.18747604,-0.21188 z m -24.044723,-15.64942 c 1.627221,-0.42383 3.737424,-2.21558 4.673915,-3.96856 0.05996,-0.11224 0.164873,-0.26022 0.233139,-0.32884 0.832527,-0.83688 2.04298,-4.05815 2.306409,-6.13782 0.326642,-2.57872 0.2544,-2.7305 -0.961433,-2.02001 -0.353714,0.2067 -0.658747,0.37581 -0.677851,0.37581 -0.04744,0 -0.935937,0.56372 -2.011415,1.27617 -1.659272,1.09918 -3.189693,2.42885 -4.25674,3.69838 -0.3715,0.44199 -0.698238,0.82476 -0.726086,0.8506 -0.205198,0.19039 -1.051914,1.6872 -1.295052,2.28937 -1.144381,2.83426 0.09687,4.64687 2.715114,3.9649 z m -9.072755,-2.37867 c -0.0018,-2.1041 0.872582,-4.58591 1.928233,-5.47282 0.03075,-0.0258 0.197885,-0.25554 0.371404,-0.51045 0.344739,-0.50644 2.370642,-2.57713 3.195382,-3.26602 1.562523,-1.30515 1.970039,-1.62687 2.536756,-2.00267 0.232536,-0.1542 0.443933,-0.30526 0.46977,-0.33568 0.08887,-0.10466 1.175144,-0.78381 1.691171,-1.05734 0.284211,-0.15065 0.580166,-0.32433 0.657678,-0.38596 0.125249,-0.0996 1.354338,-0.70936 2.536756,-1.25856 0.232536,-0.108 0.716483,-0.30278 1.075437,-0.43284 0.942303,-0.34142 0.936436,-0.33115 0.762269,-1.33497 -0.168572,-0.97159 -0.368245,-1.7049 -0.609988,-2.24022 -0.09334,-0.2067 -0.200192,-0.48152 -0.237446,-0.6107 -0.0653,-0.22643 -1.722788,-3.609535 -1.956318,-3.993045 -2.310144,-3.793743 -8.724032,-6.028583 -12.422391,-4.328429 -0.155024,0.07127 -0.448353,0.198183 -0.651843,0.282039 -1.137059,0.468569 -1.845364,1.183422 -2.124471,2.144111 -0.108798,0.374479 -0.234681,0.765439 -0.279741,0.868789 -1.379978,3.16512 -1.595108,11.426995 -0.431737,16.580425 0.427987,1.89587 1.160693,4.05973 1.999984,5.90643 0.172361,0.37924 0.313384,0.70341 0.313384,0.72037 0,0.0412 1.138438,2.20731 1.160082,2.20731 0.0093,0 0.01634,-0.6659 0.01563,-1.47977 z m 36.622561,-6.1334 c 0.403393,-0.0997 0.868465,-0.24252 1.033494,-0.31744 0.165028,-0.0749 0.617146,-0.26593 1.004706,-0.42446 1.305553,-0.53402 2.161164,-1.24993 2.67596,-2.23903 0.141428,-0.27174 0.289912,-0.51431 0.329965,-0.53907 0.294371,-0.18193 0.953513,-2.56078 1.171593,-4.2283 0.0811,-0.62009 0.19011,-1.38112 0.24225,-1.69117 0.0521,-0.31005 0.19998,-1.49387 0.32855,-2.63071 0.12857,-1.13684 0.29929,-2.341795 0.37937,-2.677685 0.18739,-0.78594 0.58629,-2.15368 0.69874,-2.39582 0.048,-0.10335 0.18837,-0.46272 0.311945,-0.79861 0.61785,-1.679353 2.2417,-4.286818 4.00803,-6.43585 0.36066,-0.438806 2.82762,-2.882896 3.19505,-3.165437 0.93643,-0.720075 1.31089,-0.992481 2.00851,-1.461098 0.41972,-0.281941 0.77713,-0.525939 0.79423,-0.542217 0.11651,-0.110879 -0.71362,-1.043228 -2.80274,-3.147858 -1.03918,-1.0469 -2.05356,-1.95522 -2.77164,-2.481852 -0.2067,-0.151591 -0.42754,-0.327136 -0.49077,-0.390101 -0.0632,-0.06297 -0.27461,-0.211519 -0.46977,-0.330121 -0.19515,-0.118602 -0.37595,-0.241085 -0.40179,-0.272184 -0.0737,-0.08876 -1.32022,-0.899785 -1.93412,-1.258447 -0.79793,-0.466178 -3.267475,-1.694385 -3.984975,-1.981897 -0.335885,-0.134593 -0.695259,-0.285095 -0.798609,-0.334449 -1.286422,-0.614328 -5.16107,-1.640665 -7.234453,-1.9163 -0.620096,-0.08244 -1.402263,-0.190454 -1.738148,-0.240042 -5.935583,-0.876276 -14.459306,1.039616 -20.200098,4.540411 -0.38756,0.236338 -0.926815,0.56179 -1.198344,0.723227 -0.271529,0.161436 -0.546344,0.345972 -0.6107,0.410078 -0.06436,0.06411 -0.24385,0.197385 -0.398874,0.296174 -1.178307,0.750877 -3.429319,2.66679 -3.429319,2.91881 0,0.06378 0.496782,0.618888 1.103959,1.23358 1.130058,1.144045 2.234964,2.337106 2.937431,3.171795 0.217444,0.258374 0.493233,0.582177 0.612863,0.719562 0.328133,0.376833 1.547241,2.19306 1.941142,2.891913 0.703457,1.24806 1.672552,3.093174 1.672552,3.184464 0,0.05171 0.03365,0.10811 0.07477,0.125335 0.06577,0.02755 0.412727,0.709058 1.283495,2.521098 0.136576,0.28421 0.357389,0.791566 0.490695,1.127446 0.133306,0.33589 0.320747,0.78652 0.416535,1.0014 0.395224,0.88661 1.374051,3.578745 1.651371,4.541885 0.640201,2.22344 0.489947,2.06055 1.661412,1.80109 1.255981,-0.27817 1.134096,-0.108 1.272714,-1.77691 0.407398,-4.904915 2.76748996,-8.534614 6.77233,-10.415475 0.38756,-0.182016 0.775235,-0.368864 0.861499,-0.415217 1.151176,-0.618569 4.450905,-0.785493 6.438728,-0.325716 3.749311,0.867202 6.688721,3.971374 6.697279,7.072683 0.0054,1.95604 -1.17509,4.311915 -2.816987,5.621815 -0.28421,0.22674 -0.57269,0.45876 -0.641066,0.51559 -0.233232,0.19386 -1.638836,0.94127 -2.120189,1.12738 -0.264086,0.10211 -0.618899,0.24976 -0.788474,0.32812 -0.169575,0.0784 -0.782625,0.24483 -1.362332,0.36993 -0.579708,0.12509 -1.244271,0.27065 -1.476807,0.32345 -0.722072,0.16395 -2.777754,0.36393 -4.876,0.47433 -1.105722,0.0582 -2.11260704,0.14465 -2.23752204,0.19214 -0.124915,0.0475 -0.349459,0.0864 -0.498986,0.0864 -0.271868,0 -0.271868,0 -0.04086,0.45992 0.127054,0.25296 0.231008,0.48524 0.231008,0.51617 0,0.0309 0.194698,0.46872 0.432663,0.97287 0.23796504,0.50415 0.47156204,1.00119 0.51910404,1.10454 1.656494,3.60092 5.914087,5.48663 10.069631,4.45991 z M 2.953703,102.69493 c 4.230469,-0.42703 5.259662,-0.89605 6.400865,-2.916955 2.052392,-3.6345 -1.86241,-6.602248 -5.973521,-4.528437 -0.895294,0.451622 -2.73881904,2.256367 -2.73881904,2.681197 0,0.0362 -0.09913,0.22356 -0.220287,0.41631 -0.917285,1.45934 -1.194277,5.198185 -0.346279,4.674095 0.03796,-0.0235 1.33308204,-0.17026 2.87804104,-0.32621 z"
       id="path1" /></g></svg>
