<?xml version="1.0" encoding="UTF-8" standalone="no"?>
<!-- Created with Inkscape (http://www.inkscape.org/) -->

<svg
   version="1.1"
   id="svg1"
   width="645.38574"
   height="629.64996"
   viewBox="0 0 645.38575 629.64997"
   xmlns="http://www.w3.org/2000/svg"
   xmlns:svg="http://www.w3.org/2000/svg">
  <defs
     id="defs1" />
  <g
     id="g1"
     transform="translate(-14.666667,-4.9006996)">
    <path
       style="fill:#000000"
       d="m 329.33334,631.82407 c 0,-3.78335 -5.06083,-11.82405 -7.44208,-11.82405 -2.46585,0 -2.38526,-0.7304 0.44208,-4.0067 4.19852,-4.86521 4.14319,-10.68788 -0.16039,-16.87981 l -3.85962,-5.55318 -4.82333,2.40923 c -5.22217,2.60846 -14.82332,4.47383 -14.82332,2.87996 0,-0.54056 0.53256,-1.55283 1.18347,-2.2495 0.65091,-0.69667 1.59134,-2.61667 2.08985,-4.26667 0.8206,-2.7161 0.46054,-3 -3.8049,-3 -3.75366,0 -11.95601,-2.65447 -15.37139,-4.97454 -0.3133,-0.21282 0.7367,-1.60399 2.33333,-3.09148 3.11144,-2.89875 3.88183,-6.60065 1.37362,-6.60065 -2.39791,0 -13.13732,-9.29931 -13.13732,-11.37568 0,-1.02511 1.28106,-2.54943 2.8468,-3.38739 1.63107,-0.87292 2.26447,-1.8894 1.48319,-2.38024 -2.75571,-1.73127 -5.88741,-11.78414 -6.63168,-21.28793 l -0.76469,-9.76458 4.53319,0.79284 c 7.11578,1.24452 9.40436,-1.73163 15.23316,-19.80975 5.34297,-16.57128 11.9945,-23.45393 22.66635,-23.45393 3.42084,0 4.93254,-0.95287 7.46181,-4.7034 3.85856,-5.72165 11.54794,-10.39723 20.59808,-12.5248 5.68131,-1.3356 8.20318,-1.22644 15.80993,0.68431 7.68515,1.93045 10.08869,3.29945 15.93339,9.0753 5.70073,5.63358 7.42764,8.51958 10.0539,16.80192 3.52607,11.12007 6.44172,17.17811 9.44324,19.62085 3.01136,2.45076 9.58146,1.98057 13.33334,-0.95418 4.80054,-3.75505 5.33553,-3.3859 5.31392,3.66666 -0.0295,9.63394 -6.72867,25.99032 -13.67212,33.38128 -2.46736,2.62638 -2.60907,3.27982 -0.9402,4.3352 1.08078,0.68348 2.97965,1.25188 4.21971,1.26311 1.24005,0.0112 2.58252,0.55094 2.98327,1.19936 1.03966,1.68221 -10.41917,11.89809 -14.49244,12.92042 -4.05586,1.01795 -4.53602,5.19306 -1.31383,11.42409 1.15407,2.23173 1.85831,4.2977 1.56497,4.59104 -1.27549,1.27549 -14.20824,3.00102 -17.00701,2.26912 -3.19285,-0.83495 -3.29953,0.21802 -0.66921,6.60515 1.46197,3.55004 -1.7742,3.99128 -9.97273,1.35974 l -7.31675,-2.3485 -4.15198,6.17485 c -3.8277,5.69258 -6.10271,13.40346 -6.14425,20.82515 -0.0157,2.81086 -1.05986,3.5433 -4.49648,3.15423 -0.78565,-0.0889 -2.77774,2.53996 -4.42687,5.84202 -3.21991,6.44725 -5.47801,7.7503 -5.47801,3.16113 z m 4.52402,-5.9331 c 0.44512,-1.15998 0.80932,-3.55998 0.80932,-5.33333 0,-1.77336 0.6,-3.22429 1.33333,-3.22429 0.73333,0 1.33333,0.6 1.33333,1.33334 0,0.73333 0.50503,1.33333 1.12229,1.33333 1.70264,0 4.22971,-9.64062 3.3794,-12.89221 -0.49517,-1.89354 0.23489,-3.84436 2.15857,-5.76805 3.72078,-3.72078 6.67308,-10.79035 6.67308,-15.97934 0,-3.97173 -0.11141,-4.04077 -5.20611,-3.22609 -4.4584,0.71293 -5.43062,0.41298 -6.76934,-2.08843 -0.85978,-1.60651 -1.23586,-3.77404 -0.83574,-4.81674 0.43431,-1.13177 -0.0979,-1.89581 -1.32051,-1.89581 -1.42332,0 -1.79645,0.79259 -1.22328,2.59847 1.08377,3.41468 -3.9509,8.64491 -7.08145,7.35651 -4.08108,-1.6796 -6.12288,-1.31353 -6.6382,1.19016 -0.70805,3.44001 3.45085,13.81373 6.78234,16.91749 2.25156,2.09764 2.50202,3.12746 1.35896,5.58781 -4.03078,8.676 -4.4048,10.34956 -2.31297,10.34956 1.11642,0 1.87914,0.75 1.69493,1.66667 -0.51655,2.57048 1.46049,9 2.76745,9 0.6409,0 1.52947,-0.94907 1.9746,-2.10905 z m -24.38965,-31.41309 c 6.5304,-2.19319 9.19306,-4.98353 9.24137,-9.68451 0.0233,-2.26968 0.84054,-5.17815 1.81604,-6.46328 1.67769,-2.2102 1.96386,-2.18697 5.29007,0.42943 3.29434,2.59133 3.65803,2.62443 5.75832,0.52414 2.1003,-2.1003 2.03774,-2.39588 -0.99044,-4.68004 -3.44194,-2.59626 -3.19533,-2.85429 4.2867,-4.48495 7.36955,-1.60616 16.05225,2.35154 9.13024,4.16168 -1.46667,0.38354 -2.66667,1.46318 -2.66667,2.39919 0,2.98064 3.7166,3.26053 7.1748,0.54031 l 3.34499,-2.63117 1.39934,5.039 c 0.76963,2.77145 1.40268,6.03031 1.40677,7.24191 0.004,1.21159 1.65744,2.80022 3.6741,3.53028 2.01667,0.73007 4.71667,1.75296 6,2.27309 1.99698,0.80937 2.33334,0.15631 2.33334,-4.53029 0,-6.13081 -0.1725,-5.9825 4.77192,-4.10263 4.41056,1.67689 12.56141,-0.6069 12.56141,-3.51958 0,-1.06668 -0.80326,-3.87015 -1.78502,-6.22993 -2.02553,-4.86857 -1.56199,-7.62385 1.28258,-7.62385 2.60205,0 11.62289,-4.66696 13.58076,-7.02606 1.28364,-1.54669 0.60528,-2.20488 -3.75586,-3.64419 -2.92735,-0.96612 -5.32246,-2.56054 -5.32246,-3.54316 0,-0.98262 0.57663,-1.78659 1.28139,-1.78659 3.82893,0 11.99596,-12.36562 16.0041,-24.23165 3.69021,-10.92481 3.36814,-12.2893 -2.25558,-9.55591 -8.31022,4.03916 -15.33881,-0.64348 -20.33205,-13.54577 -1.70281,-4.4 -3.90644,-9.89068 -4.89694,-12.20151 -0.99051,-2.31082 -1.80092,-4.76321 -1.80092,-5.44975 0,-2.53049 -11.51896,-11.85454 -17.37791,-14.0666 -14.87214,-5.615 -30.81271,-0.2198 -37.41901,12.66474 -3.11257,6.07059 -3.234,13.13736 -0.35527,20.67521 2.42257,6.3434 4.48552,7.45861 4.48552,2.42482 0,-1.97762 1.119,-3.88529 2.80982,-4.79019 2.05481,-1.0997 2.41308,-1.90049 1.33333,-2.98024 -2.58188,-2.58188 -1.79551,-7.60981 1.19019,-7.60981 1.85858,0 2.66666,0.88888 2.66666,2.93333 0,2.23965 0.36891,2.56443 1.55996,1.37337 1.19106,-1.19106 1.14984,-2.80263 -0.17429,-6.8148 -1.96108,-5.94214 -0.99323,-11.81086 2.36939,-14.36715 2.663,-2.02442 10.91161,-2.37071 10.91161,-0.45809 0,0.73334 -1.72653,1.33334 -3.83674,1.33334 -6.63373,0 -7.89788,3.24677 -6.06363,15.57345 0.70159,4.71487 0.40332,5.83952 -1.93617,7.30056 -2.28697,1.42824 -2.62626,2.59797 -1.96075,6.75987 0.71907,4.4968 0.50264,5.03278 -2.0323,5.03278 -1.60601,0 -2.83708,-0.84968 -2.83708,-1.95815 0,-1.30915 0.77336,-1.66832 2.33334,-1.08369 2.06761,0.77488 2.11862,0.61065 0.44787,-1.4421 -1.68736,-2.07316 -2.0985,-2.10353 -3.91304,-0.28899 -1.73811,1.73812 -1.76989,2.50904 -0.22256,5.40025 1.98371,3.7066 4.67075,4.41075 5.78188,1.51518 0.85097,-2.21759 14.31506,-8.80916 17.99378,-8.80916 1.42252,0 4.87155,0.95479 7.66451,2.12177 21.58473,9.01867 25.08463,28.57383 9.40426,52.54489 -2.15865,3.3 -5.02699,7.07338 -6.37409,8.38528 -2.76068,2.68854 -3.08848,4.39563 -1.08217,5.6356 1.79145,1.10718 9.39142,-6.56971 15.12968,-15.28281 4.68666,-7.11633 7.89077,-7.26681 4.23583,-0.19894 -2.11684,4.09352 -16.3666,20.13259 -17.87624,20.12092 -0.47101,-0.004 -2.62841,-1.42447 -4.79423,-3.15739 -3.66591,-2.93318 -3.7853,-3.30331 -1.72883,-5.35978 9.47091,-9.47092 15.76075,-20.57067 18.58157,-32.7911 1.31577,-5.70025 1.22022,-7.43751 -0.62155,-11.29974 -4.77778,-10.0191 -13.96776,-16.7187 -22.93338,-16.7187 -4.73307,0 -13.03447,4.25805 -16.54279,8.48532 -2.73925,3.3006 -6.57009,2.63356 -11.14409,-1.94045 -4.65352,-4.65352 -9.55099,-4.66697 -14.17903,-0.0389 -11.07102,11.07102 -9.2974,35.34276 3.6336,49.72514 l 5.95607,6.62458 -3.49123,3.49123 c -3.07727,3.07727 -3.85757,3.29518 -6.5808,1.83775 -3.15814,-1.69018 -11.17602,-12.5801 -11.91622,-16.18465 -0.89514,-4.35905 2.40785,-2.60529 5.26342,2.79466 3.16275,5.98086 7.27424,10.53867 9.50667,10.53867 3.06053,0 2.68862,-2.93165 -0.85258,-6.72073 -7.21193,-7.71674 -12.34631,-20.7455 -12.34631,-31.32936 0,-12.04174 7.48305,-25.24674 15.80339,-27.88751 2.62186,-0.83215 2.96729,-1.55977 2.14914,-4.52696 -0.53617,-1.94449 -1.02931,-6.07286 -1.09588,-9.17414 -0.13222,-6.15946 -1.79781,-7.618 -6.61006,-5.78839 -7.29391,2.77314 -11.06939,7.73916 -14.97328,19.69485 -6.00144,18.37948 -11.63252,25.73415 -18.12544,23.67338 -2.43333,-0.77231 -2.6691,-0.43405 -2.03949,2.92613 0.39154,2.08967 1.06819,5.989 1.50366,8.66518 0.85314,5.24298 4.11416,12.60161 6.13905,13.85307 2.21256,1.36743 1.33055,4.40887 -1.54304,5.32091 -2.74595,0.87153 -2.73468,0.9459 0.68434,4.51459 1.91196,1.99565 5.56833,4.44932 8.12528,5.45258 5.38844,2.11426 5.73957,3.65298 1.79881,7.88288 -2.1749,2.33448 -2.44724,3.30834 -1.14947,4.11041 2.41337,1.49154 11.91957,2.87332 13.41388,1.94978 2.49984,-1.54498 3.62232,0.7874 2.58737,5.37623 -0.57975,2.57057 -0.90682,4.67377 -0.72681,4.67377 0.18,0 2.36682,-0.68496 4.85958,-1.52214 z m 35.70879,-67.33352 c -3.96488,-4.77738 10.98563,-10.44894 19.19101,-7.28021 3.54867,1.37042 6.06536,4.81412 4.59369,6.28578 -0.38586,0.38587 -3.05654,-0.004 -5.93484,-0.86635 -4.53918,-1.35997 -5.96518,-1.2143 -10.75163,1.09825 -4.73783,2.28908 -5.7418,2.39693 -7.09823,0.76253 z m -23.7732,-1.86118 c -3.33906,-1.86233 -5.98385,-2.34197 -9.66667,-1.75306 -4.07674,0.6519 -5.06995,0.39737 -5.06995,-1.29927 0,-4.57154 15.8666,-4.60223 21.19373,-0.041 6.32447,5.41518 1.68811,7.63626 -6.45711,3.09332 z m -170.95712,52.34617 c -1.9546,-0.24824 -3.91872,-1.40227 -4.36472,-2.56451 -1.07301,-2.79622 0.22514,-3.95823 2.20743,-1.97593 2.29982,2.29982 8.61666,1.94908 9.56846,-0.53128 0.44513,-1.15997 0.80932,-4.75997 0.80932,-8 0,-5.65661 -0.15912,-5.89095 -4,-5.89095 -3.28502,0 -4,-0.54814 -4,-3.06666 0,-4.23642 2.46373,-6.29954 7.26667,-6.08509 3.64707,0.16284 3.72273,0.24549 0.73333,0.80108 -3.45482,0.64209 -5.27772,2.47795 -5.31292,5.35067 -0.0332,2.70906 3.72583,1.90002 4.64625,-1 1.81591,-5.72139 3.33139,-2.19088 3.29093,7.66667 -0.0542,13.21944 -2.29625,16.38169 -10.84475,15.296 z m 359.72755,-3.296 c -0.44218,-1.65 -0.81216,-5.80827 -0.82218,-9.2406 -0.0157,-5.40092 -0.42186,-6.32 -3.0182,-6.83073 l -3,-0.59014 3,-0.99144 c 2.43151,-0.80357 3,-1.98073 3,-6.21209 0,-5.65255 3.11873,-14.41577 5.71838,-16.06786 2.28504,-1.45215 4.94829,-1.30888 4.94829,0.26619 0,0.73334 -0.75568,1.33334 -1.67928,1.33334 -2.8477,0 -5.24687,5.40613 -5.97814,13.47076 -0.65503,7.22374 -0.53088,7.66216 1.98346,7.00464 1.47523,-0.38578 3.36117,-2.19153 4.19099,-4.01279 1.06924,-2.34671 2.37498,-3.18774 4.48224,-2.88699 3.93411,0.56148 4.51847,4.38842 1.11508,7.3025 -1.9165,1.64096 -2.2599,2.6199 -1.15793,3.30096 2.54718,1.57424 6.37691,-1.34884 6.37691,-4.86726 0,-2.35124 0.91398,-3.49041 3.27612,-4.08327 4.97622,-1.24895 7.31886,0.2168 3.05721,1.91285 -2.80623,1.11683 -3.66666,2.35493 -3.66666,5.27608 0,3.60462 -0.33566,3.82952 -6.03718,4.04518 -4.30781,0.16294 -6.25836,-0.34804 -6.80932,-1.78382 -0.42468,-1.1067 -2.29411,-2.01218 -4.15429,-2.01218 -3.38114,0 -3.38189,0.003 -2.5147,9.33334 0.82737,8.90225 -0.58499,12.77318 -2.3108,6.33333 z m 13.82629,-21 c 0,-0.73333 -0.6,-1.33333 -1.33334,-1.33333 -0.73333,0 -1.33333,0.6 -1.33333,1.33333 0,0.73333 0.6,1.33333 1.33333,1.33333 0.73334,0 1.33334,-0.6 1.33334,-1.33333 z m 26.28567,23.17457 c -1.98974,-1.98974 -0.78873,-2.80695 3.90927,-2.65999 4.19499,0.13123 5.0362,-0.36049 6.13496,-3.58614 0.70035,-2.05602 0.89675,-5.7457 0.43646,-8.19928 -0.64383,-3.43187 -1.38473,-4.3178 -3.21148,-3.84009 -1.30602,0.34153 -3.80712,-0.53904 -5.558,-1.95682 l -3.18343,-2.57778 3.78797,-3.51057 c 7.02063,-6.5065 9.45175,-4.26387 10.64835,9.82277 1.07263,12.62718 -0.58733,16.49239 -7.32809,17.06345 -2.57601,0.21824 -5.11222,-0.0318 -5.63601,-0.55555 z m 9.71433,-23.84124 c 0,-1.1 -1.13581,-2 -2.52402,-2 -1.38821,0 -2.86938,0.9 -3.29149,2 -0.55447,1.44493 0.14604,2 2.52402,2 2.03688,0 3.29149,-0.76233 3.29149,-2 z M 94.224205,566.20104 c 0.75411,-8.07559 0.644289,-8.50877 -2.383501,-9.40142 l -3.174035,-0.93576 3,-1.22229 c 2.571505,-1.04771 3,-2.21573 3,-8.17762 0,-9.76109 4.315475,-18.47894 9.118941,-18.42153 3.40736,0.0407 3.44532,0.11986 0.95955,2 -1.42349,1.07668 -3.03092,1.9576 -3.57205,1.9576 -1.288242,0 -5.173107,13.4213 -5.173107,17.87187 0,2.95718 0.58274,3.46146 3.999997,3.46146 2.2,0 4,0.525 4,1.16667 0,0.64166 -1.8,1.52666 -4,1.96666 -3.95402,0.79081 -3.999997,0.9 -3.999997,9.5 0,4.785 -0.577425,8.7 -1.283166,8.7 -0.770273,0 -0.967183,-3.38379 -0.492632,-8.46564 z m 33.048525,-4.14042 c -3.55269,-3.55268 -4.03581,-6.1434 -1.89248,-10.14826 1.086,-2.02922 0.94388,-2.57901 -0.66667,-2.57901 -1.89775,0 -2.24881,1.14019 -2.63724,8.5652 -0.0738,1.41086 -0.95811,2.83984 -1.96511,3.17551 -1.44395,0.48131 -1.67988,-0.7298 -1.11627,-5.73011 0.73909,-6.55722 1.99497,-8.11742 7.67171,-9.5307 1.83333,-0.45643 4.69974,-2.07113 6.36979,-3.58822 3.97381,-3.60985 11.57176,-3.69431 14.24583,-0.15835 4.6198,6.10886 -0.0547,17.92379 -5.69726,14.39995 -1.56645,-0.97826 -2.94004,-0.98971 -4.45026,-0.0371 -1.63313,1.03016 -2.77045,0.79194 -4.50624,-0.94386 -3.38385,-3.38385 -0.34542,-8.819 4.93011,-8.819 2.07609,0 3.84391,0.75 3.9285,1.66667 0.40532,4.39236 0.58099,4.97121 1.51286,4.9851 0.55,0.008 1.6,0.0149 2.33334,0.0149 1.47175,0 1.79323,-5.25009 0.52401,-8.55762 -1.47349,-3.83986 -8.79523,-2.61298 -13.3736,2.24097 -5.77333,6.12083 -6.59628,9.53745 -3.13175,13.00198 2.21898,2.21899 3.72322,2.62373 7.04204,1.89479 3.79502,-0.83352 4.03854,-0.70791 2.41655,1.24647 -2.61903,3.15573 -7.77397,2.66457 -11.53786,-1.09932 z m 11.35063,-9.97968 c 0.76112,-1.42217 0.87063,-2.90295 0.24335,-3.29063 -1.7779,-1.0988 -6.05492,2.62047 -4.99172,4.34077 1.40099,2.26684 3.18425,1.87246 4.74837,-1.05014 z m 66.70998,4.95812 c 0,-6.96299 2.65612,-21.03904 3.97003,-21.03904 0.38335,0 0.15239,6.3 -0.51325,14 -1.2629,14.609 -3.45678,19.07639 -3.45678,7.03904 z m 274.33334,5.52083 c -2.92802,-1.70542 -3.06908,-8.30031 -0.23809,-11.1313 2.36761,-2.36762 5.61663,-2.66307 8.57142,-0.77944 2.80084,1.78547 0.12722,5.81125 -4.43914,6.6842 -2.5657,0.49049 -3.18248,1.15482 -2.33386,2.5138 0.76433,1.22399 2.32624,1.55278 4.62989,0.97459 1.91205,-0.47989 3.47645,-0.33108 3.47645,0.3307 0,0.66178 -1.35,1.56501 -3,2.0072 -3.82432,1.02487 -3.88704,1.01923 -6.66667,-0.59975 z m 6.27639,-9.13441 c 1.33592,-2.16156 -1.56705,-2.81843 -3.28857,-0.74412 -1.33969,1.61423 -1.25803,1.98532 0.4369,1.98532 1.14651,0 2.42977,-0.55854 2.85167,-1.2412 z m 7.39028,9.24762 c -1.64494,-1.06832 -1.50687,-1.30254 0.77778,-1.31933 4.30189,-0.0316 4.84169,-1.54397 1.73239,-4.85366 -1.61365,-1.71766 -2.5037,-3.92711 -2.05404,-5.09892 0.88324,-2.30167 7.54387,-2.8807 7.54387,-0.65582 0,0.77662 -0.6,1.04121 -1.33334,0.58798 -2.97119,-1.8363 -4.13011,1.0139 -1.4337,3.526 2.78706,2.59653 3.81673,7.80733 1.54275,7.80733 -0.67335,0 -2.02335,0.2937 -3,0.65267 -0.97664,0.35896 -2.67571,0.0682 -3.77571,-0.64625 z m 157.85214,-0.0683 c -4.42354,-1.64762 -4.90114,-5.01034 -1.23264,-8.67884 3.77276,-3.77276 5.46417,-4.03277 8.23156,-1.26538 4.82587,4.82587 -0.48432,12.37071 -6.99892,9.94422 z m 4.03881,-2.08079 c 3.55049,-1.36245 2.61098,-5.85735 -1.22428,-5.85735 -2.34343,0 -3.33333,0.72593 -3.33333,2.44445 0,3.77843 1.22146,4.69311 4.55761,3.4129 z M 16.046912,560.08767 c -0.759135,-1.41845 -1.380245,-3.42546 -1.380245,-4.46001 0,-3.35323 5.223848,-6.82591 10.061716,-6.68878 l 4.604951,0.13053 v -10.5347 c 0,-15.56792 2.507368,-12.90891 2.953356,3.13197 0.472329,16.98827 -1.373817,21 -9.663903,21 -3.772159,0 -5.573782,-0.70658 -6.575875,-2.57901 z m 13.286422,-3.45618 c 0,-2.22771 -3.651746,-5.96481 -5.828571,-5.96481 -4.139095,0 -6.891167,8.40428 -3.171429,9.68492 2.603623,0.89637 9,-1.74754 9,-3.72011 z m 12.000001,0.70186 c 0,-2.93333 0.6,-5.33333 1.333333,-5.33333 0.733333,0 1.333333,2.4 1.333333,5.33333 0,2.93333 -0.6,5.33333 -1.333333,5.33333 -0.733333,0 -1.333333,-2.4 -1.333333,-5.33333 z m 9.333333,4.14455 c 0,-0.65384 1.525692,-1.57172 3.390427,-2.03974 4.056554,-1.01813 5.526805,-4.05971 3.274332,-6.77378 -2.068422,-2.49229 -3.998092,-1.3592 -3.998092,2.34766 0,1.72209 -0.468547,2.35211 -1.180992,1.58798 -1.718894,-1.84359 -3.338599,-28.6 -1.731308,-28.6 0.71578,0 1.726315,4.8 2.245633,10.66666 0.884475,9.99178 1.139635,10.66667 4.032835,10.66667 2.389013,0 3.300372,0.96411 4.023468,4.25635 0.761537,3.46725 0.38301,4.70319 -2.041771,6.66666 -3.11229,2.52018 -8.014532,3.26736 -8.014532,1.22154 z m 14.600204,-1.60207 c -2.059985,-3.84912 -0.624972,-8.44941 3.473368,-11.13474 2.699883,-1.76903 3.848554,-1.91227 5.348994,-0.66702 2.900351,2.40708 2.303905,4.95186 -1.755899,7.49166 -2.016666,1.26163 -3.94929,2.50808 -4.294719,2.76991 -0.345429,0.26182 0.234448,1.00909 1.288615,1.66061 1.174425,0.72583 2.591893,0.62418 3.660275,-0.2625 2.008909,-1.66725 3.70509,-0.59973 2.400654,1.51089 -1.591432,2.57499 -8.511494,1.63912 -10.121288,-1.36881 z m 7.571496,-8.81522 c -1.099015,-1.09902 -4.838366,0.6614 -4.838366,2.27781 0,0.98607 0.852611,0.96578 2.780862,-0.0662 1.529474,-0.81855 2.455351,-1.81379 2.057504,-2.21163 z m 5.029616,10.48635 c 0.440737,-0.71313 2.000743,-0.98294 3.46668,-0.59959 3.238787,0.84696 3.642768,-2.44611 0.665338,-5.42354 -2.413559,-2.41356 -2.561396,-5.09575 -0.4,-7.25715 2.224719,-2.22471 5.066667,-2.00035 5.066667,0.4 0,1.1 -0.9,2 -2,2 -2.777127,0 -2.497092,1.64841 0.752751,4.43101 4.226855,3.61914 2.812133,6.82654 -3.230519,7.3241 -3.076721,0.25334 -4.802248,-0.096 -4.320917,-0.87483 z m 122.513376,-4.88028 c 0.01,-3.66666 0.26895,-5.00841 0.57542,-2.98166 0.30647,2.02675 0.29828,5.02675 -0.0182,6.66666 -0.31648,1.63992 -0.56723,-0.0183 -0.55722,-3.685 z m 14.54087,4.56667 c 0.26278,-0.78833 1.04778,-1.43333 1.74444,-1.43333 0.69667,0 1.48167,0.645 1.74445,1.43333 0.26278,0.78833 -0.52222,1.43333 -1.74445,1.43333 -1.22222,0 -2.00722,-0.645 -1.74444,-1.43333 z m 9.96667,0.54445 c -0.48889,-0.48889 -0.88889,-2.56778 -0.88889,-4.61976 0,-4.11925 4.605,-7.75302 6.90743,-5.45059 0.82819,0.82819 0.0317,1.60308 -2.23174,2.17116 -4.31742,1.08361 -4.07797,5.25079 0.33793,5.88081 1.64251,0.23434 2.98638,0.98434 2.98638,1.66667 0,1.41459 -5.76319,1.69963 -7.11111,0.35171 z m 10.52866,-1.51243 c -1.1189,-3.52534 0.31575,-6.66767 3.50651,-7.68038 3.58507,-1.13786 5.37895,0.92957 4.84684,5.58593 -0.34494,3.01851 -1.18954,3.91607 -3.98978,4.23995 -2.55311,0.29529 -3.78042,-0.30815 -4.36357,-2.1455 z m 6.13645,-4.57802 c -1.33117,-1.33117 -1.89654,-1.29048 -2.8195,0.2029 -0.63495,1.02737 -0.82791,2.71888 -0.42882,3.75891 0.61169,1.59404 1.05442,1.56218 2.8195,-0.2029 1.674,-1.674 1.75999,-2.42774 0.42882,-3.75891 z m 5.11266,4.40791 c 0,-3.91269 3.40987,-6.49524 8.57597,-6.49524 5.39538,0 8.01222,2.44632 6.77768,6.33601 -1.08902,3.43119 -3.33877,3.62844 -2.446,0.21447 1.02959,-3.93716 -2.04738,-4.70087 -3.76361,-0.93414 -1.70865,3.75007 -4.36152,3.28627 -3.14404,-0.54968 0.42633,-1.34323 0.19956,-2.79797 -0.50393,-3.23275 -0.70349,-0.43479 -1.67557,1.01472 -2.16018,3.22112 -0.97751,4.45059 -3.33589,5.46878 -3.33589,1.44021 z m 186.37689,-0.86545 c -1.96779,-4.31883 -0.38216,-7.20277 5.39024,-9.80375 3.74322,-1.68665 4.23499,-2.53498 4.25109,-7.33333 0.0203,-6.04857 1.18307,-11.42608 2.47063,-11.42597 0.46447,3e-5 0.83335,4.7998 0.81973,10.66614 -0.0242,10.41531 -0.38926,11.19202 -4.51625,9.60835 -2.43256,-0.93346 -6.89393,4.57589 -5.86878,7.24737 0.7845,2.04438 2.94534,2.01214 11.07646,-0.16525 l 3.33333,-0.89261 -3.14771,2.76796 c -4.65318,4.09181 -11.79729,3.74574 -13.80874,-0.66891 z m 23.81261,-1.65297 c -0.6165,-3.16608 -0.76134,-6.11608 -0.32187,-6.55556 1.59496,-1.59496 2.29028,0.82306 1.87102,6.50663 l -0.42824,5.80544 z m 8.47718,3.31731 c 0,-0.97489 1.2714,-1.72489 2.82533,-1.66667 3.9746,0.14894 6.22959,-3.68312 3.85267,-6.54713 -1.67466,-2.01784 -1.99024,-1.9117 -3.63193,1.22157 -0.98885,1.88729 -2.07874,3.43143 -2.42199,3.43143 -0.34325,0 -0.50486,-6.15 -0.35915,-13.66667 0.2275,-11.73601 0.32993,-12.30108 0.72508,-4 0.44151,9.27514 0.59395,9.66667 3.76365,9.66667 4.83345,0 7.04622,5.40524 4.0714,9.94538 -2.37096,3.61855 -8.82506,4.79997 -8.82506,1.61542 z m 113.37712,1.10587 c -0.22906,-0.73334 -0.48262,-4.63334 -0.56346,-8.66667 -0.13132,-6.55165 -0.46888,-7.37902 -3.16677,-7.76199 -3.56365,-0.50587 -2.65649,-2.90468 1.09847,-2.90468 2.22071,0 2.58797,-0.95725 2.58797,-6.74535 0,-4.6225 0.46803,-6.4561 1.48716,-5.82625 0.90232,0.55767 1.2289,3.21029 0.83045,6.74536 -0.61201,5.42966 -0.44096,5.82624 2.51284,5.82624 4.02624,0 4.16271,2.34015 0.16955,2.90727 -2.6639,0.37833 -3.08625,1.39702 -3.76986,9.09273 -0.42343,4.76667 -0.95729,8.06667 -1.18635,7.33334 z m 38.95622,-0.21638 c -2.80332,-1.13116 -1.85241,-3.10518 1.33333,-2.7679 2.37831,0.25179 3.08743,-0.44223 3.4219,-3.34906 0.48766,-4.23829 -2.30527,-5.06733 -3.3689,-1 -1.65297,6.32097 -3.053,1.73521 -3.053,-10 0,-7.55555 0.53801,-12.66666 1.33333,-12.66666 0.75214,0 1.33334,3.77777 1.33334,8.66666 0,7.70418 0.28879,8.66667 2.60041,8.66667 3.20045,0 5.28247,3.42841 4.36599,7.18938 -1.31667,5.4033 -3.70492,6.98046 -7.9664,5.26091 z m 13,-1.00584 c 0,-1.16112 0.95,-2.11112 2.11111,-2.11112 1.16111,0 1.87361,0.7125 1.58333,1.58334 -0.8241,2.4723 -3.69444,2.88234 -3.69444,0.52778 z m 9.46624,-1.11112 c 0.0731,-1.65 0.61329,-4.5 1.20042,-6.33333 0.87008,-2.71683 1.0921,-2.16197 1.20043,3 0.0731,3.48333 -0.46709,6.33333 -1.20043,6.33333 -0.73333,0 -1.27352,-1.35 -1.20042,-3 z M 106.45144,558.0601 c -2.1384,-4.69328 0.76229,-11.39342 4.93255,-11.39342 1.68325,0 3.32938,0.75 3.65807,1.66667 0.97825,2.72826 -1.60227,6.33333 -4.53341,6.33333 -1.60226,0 -2.4934,0.6888 -2.15627,1.66667 0.31603,0.91667 2.16603,1.64302 4.11111,1.61411 2.02516,-0.0301 3.53651,0.68216 3.53651,1.66666 0,1.02408 -1.62892,1.71923 -4.02858,1.71923 -2.98355,0 -4.41546,-0.8491 -5.51998,-3.27325 z M 112,550.62984 c 0,-0.66704 -0.89655,-0.86876 -1.99234,-0.44826 -1.09579,0.42049 -1.65433,1.31145 -1.2412,1.9799 0.86408,1.39811 3.23354,0.27577 3.23354,-1.53164 z m 53.51491,7.61586 c -0.31748,-6.56437 1.87103,-8.9108 7.93253,-8.50491 2.95839,0.19811 5.93378,1.23747 6.61198,2.30971 1.65436,2.61556 1.61169,9.28285 -0.0594,9.28285 -0.73334,0 -1.33334,-1.8 -1.33334,-4 0,-5.00265 -2.22882,-5.17524 -4.30464,-0.33333 l -1.57198,3.66666 -0.4795,-4.33333 c -0.71428,-6.45505 -4.66806,-4.91778 -6.00121,2.33333 -0.5893,3.20525 -0.61983,3.18907 -0.79443,-0.42098 z m 18.88703,0.87855 c -0.46624,-1.215 0.0256,-3.765 1.09297,-5.66666 2.02136,-3.6013 6.54223,-4.67951 7.5054,-1.79 0.33274,0.99822 -0.20591,1.37526 -1.34194,0.93932 -1.04379,-0.40054 -2.67942,0.21356 -3.63475,1.36465 -2.24256,2.70212 -0.71921,4.2656 1.97639,2.02846 2.36087,-1.95935 2.65924,-1.78194 3.92421,2.33333 0.95311,3.10072 -1.20824,4.34659 -2.3131,1.33333 -0.48889,-1.33333 -0.96445,-1.33333 -2.37778,0 -2.39117,2.25582 -3.81914,2.0955 -4.8314,-0.54243 z m 355.59808,0.2091 c 0,-1.1 0.9,-2 2,-2 1.1,0 2,0.9 2,2 0,1.1 -0.9,2 -2,2 -1.1,0 -2,-0.9 -2,-2 z m 48,-7.8139 c 0,-11.73376 1.29326,-22.1861 2.74508,-22.1861 0.5771,0 0.70283,4.58091 0.27938,10.17979 -0.63488,8.39466 -0.44149,10.06296 1.10282,9.51351 3.8375,-1.36534 6.53938,1.53524 6.53938,7.02028 0,2.90753 -0.6,5.28642 -1.33333,5.28642 -0.73333,0 -1.33333,-2.06459 -1.33333,-4.58798 0,-2.52338 -0.5699,-4.94019 -1.26644,-5.37067 -1.56133,-0.96496 -4.0669,3.47355 -4.0669,7.20433 0,1.51488 -0.6,2.75432 -1.33333,2.75432 -0.76812,0 -1.33333,-4.16019 -1.33333,-9.8139 z m 15.47598,7.70485 c -1.26509,-3.29677 -0.94992,-9.64667 0.52402,-10.55762 0.80692,-0.4987 1.33333,1.35653 1.33333,4.69909 0,6.2503 3.03494,6.94918 3.75523,0.86476 0.23788,-2.00939 1.25562,-3.56385 2.33333,-3.56385 2.44996,0 2.41672,1.82199 -0.1228,6.73288 -2.20356,4.26122 -6.50329,5.26413 -7.82311,1.82474 z m -35.47598,-5.22428 c 0,-2.56667 0.6,-4.66667 1.33333,-4.66667 0.73333,0 1.34153,0.75 1.35154,1.66667 0.01,0.91666 0.37999,3.01666 0.82218,4.66666 0.59105,2.20552 0.23312,3 -1.35154,3 -1.57455,0 -2.15551,-1.25777 -2.15551,-4.66666 z M 38.666668,545.41204 c 0,-0.69005 0.6,-1.62546 1.333333,-2.07869 0.733334,-0.45322 1.333334,0.11137 1.333334,1.25464 0,1.14328 -0.6,2.07869 -1.333334,2.07869 -0.733333,0 -1.333333,-0.56459 -1.333333,-1.25464 z m 161.333342,-0.0787 c 0,-0.97778 0.4,-1.37778 0.88888,-0.88889 0.48889,0.48889 0.48889,1.28889 0,1.77778 -0.48888,0.48889 -0.88888,0.0889 -0.88888,-0.88889 z m 440.00001,0.0787 c 0,-0.69005 0.6,-1.62546 1.33333,-2.07869 0.73334,-0.45322 1.33334,0.11137 1.33334,1.25464 0,1.14328 -0.6,2.07869 -1.33334,2.07869 -0.73333,0 -1.33333,-0.56459 -1.33333,-1.25464 z m -185.33334,-1.41202 c 0,-0.73334 0.6,-1.33334 1.33333,-1.33334 0.73334,0 1.33334,0.6 1.33334,1.33334 0,0.73333 -0.6,1.33333 -1.33334,1.33333 -0.73333,0 -1.33333,-0.6 -1.33333,-1.33333 z m 113.33334,-2 c 0,-1.1 0.6,-2 1.33333,-2 0.73333,0 1.33333,0.9 1.33333,2 0,1.1 -0.6,2 -1.33333,2 -0.73333,0 -1.33333,-0.9 -1.33333,-2 z M 176.71781,452.86895 c -2.96044,-2.16472 -1.57231,-5.47965 1.56046,-3.72646 3.04097,1.70181 6.47949,0.42437 8.37096,-3.10989 1.6064,-3.00158 1.3226,-14.30912 -0.76212,-30.36592 -0.53996,-4.15884 -0.32712,-6.33333 0.6199,-6.33333 1.53591,0 1.97159,1.4696 4.1242,13.91154 2.86872,16.58103 0.68472,27.56042 -5.98685,30.09694 -4.48918,1.70678 -4.98624,1.67713 -7.92655,-0.47288 z m 92.03683,-7.81463 c -1.44272,-2.05978 -1.64099,-3.36303 -0.65923,-4.33333 0.97536,-0.964 1.80595,-0.67528 2.72056,0.94569 1.62599,2.88176 5.61708,3.02469 7.89277,0.28265 1.0199,-1.2289 1.96449,-7.50342 2.35713,-15.65749 0.60748,-12.61555 0.49252,-13.47178 -1.57814,-11.75329 -4.67491,3.87983 -12.05859,-3.6531 -9.67336,-9.86889 1.30711,-3.40627 3.64119,-2.20632 3.2361,1.66369 -0.30404,2.90474 0.2236,3.7531 2.53923,4.08264 2.1432,0.30501 3.49799,-0.6959 5.07821,-3.7517 2.07155,-4.00594 5.90447,-4.93736 4.79113,-1.16428 -0.29753,1.00834 -0.89973,10.05911 -1.33821,20.11284 -0.70528,16.17122 -1.10423,18.51148 -3.45903,20.29093 -3.95876,2.9915 -9.4934,2.59666 -11.90716,-0.84946 z M 78.33961,427.22851 c -0.93839,-0.93839 0.07611,-33.74376 1.094472,-35.39151 0.397815,-0.64368 4.737889,-1.15106 9.64461,-1.12753 10.988638,0.0527 22.545328,5.09333 25.381758,11.07062 4.45835,9.39521 -2.69751,19.25593 -17.082854,23.54008 -8.739662,2.60278 -17.468571,3.47775 -19.037986,1.90834 z m 19.06563,-5.95757 c 6.20257,-1.61384 13.03742,-7.81753 14.01875,-12.72421 0.93698,-4.68488 -2.4399,-9.24761 -7.84892,-10.60519 -1.98014,-0.49698 -3.930004,-1.43714 -4.333021,-2.08923 -0.403017,-0.6521 -4.297348,-1.18563 -8.654069,-1.18563 h -7.921311 v 14.81505 14.81506 l 5,-0.89646 c 2.75,-0.49306 7.132357,-1.45128 9.738571,-2.12939 z m 43.56672,5.27325 c -1.29876,-0.75611 -2.01335,-1.93786 -1.58798,-2.62612 0.42537,-0.68827 0.13799,-1.25139 -0.63862,-1.25139 -0.919,0 -1.41202,-5.85815 -1.41202,-16.77778 0,-12.82744 0.39242,-16.64794 1.66666,-16.22633 1.09245,0.36146 1.80084,4.07475 2.05609,10.77778 l 0.38942,10.22633 h 4.53497 c 3.17483,0 5.15751,0.88878 6.61059,2.96334 2.78444,3.97535 2.61444,6.65868 -0.68784,10.85685 -2.87544,3.65553 -6.88864,4.41084 -10.93127,2.05732 z m 7.59947,-4.63941 c 2.38538,-2.38538 2.51305,-3.18104 0.91505,-5.70262 -2.52777,-3.98874 -9.48832,1.06192 -7.74052,5.61662 1.05901,2.75974 4.11325,2.79822 6.82547,0.086 z M 124,420.11112 c 0,-5.24195 0.46975,-6.77777 2.07306,-6.77777 1.63735,0 1.98764,1.30919 1.66667,6.2291 -0.58036,8.89567 -3.73973,9.3592 -3.73973,0.54867 z m 92.00001,3.22223 c 0,-1.39029 1.39866,-2 4.58797,-2 6.43893,0 6.98027,-2.05728 1.47914,-5.62124 -5.32644,-3.45077 -6.10937,-7.38724 -2.17707,-10.94592 2.7598,-2.49759 8.24471,-2.41449 9.08457,0.13763 0.29559,0.89823 -1.08655,1.75434 -3.2289,2 -4.47297,0.51292 -5.0144,3.87231 -0.91433,5.67309 6.32977,2.7801 7.25774,10.37272 1.45779,11.9276 -5.50969,1.47708 -10.28917,0.93305 -10.28917,-1.17116 z m 102.66667,1.07469 c -3.52499,-1.2598 -5.33334,-4.77462 -5.33334,-10.36619 0,-9.26625 6.80543,-15.44388 14,-12.7085 6.80117,2.5858 2.99325,11.06801 -5.75415,12.81749 -4.72223,0.94445 -5.20763,2.03025 -2.23603,5.00185 1.38272,1.38272 3.47119,1.77267 6.69343,1.24977 3.84411,-0.62381 4.54279,-0.39306 3.89795,1.28736 -1.13417,2.95562 -6.78759,4.31943 -11.26786,2.71822 z m 6.93112,-16.83593 c 0.52681,-0.85239 0.44723,-2.06041 -0.17683,-2.68447 -1.46468,-1.46468 -6.19422,1.06301 -7.27917,3.89033 -0.69685,1.81595 -0.21851,2.02973 2.82978,1.26466 2.01761,-0.50639 4.09941,-1.61812 4.62622,-2.47052 z m 9.68072,16.3392 c -1.35579,-2.19372 0.49376,-3.24463 5.71039,-3.24463 5.15982,0 7.41593,-2.76851 3.45531,-4.24008 -3.40862,-1.26649 -7.11088,-5.71039 -7.11088,-8.53536 0,-5.69865 10.70181,-9.10507 11.7198,-3.73045 0.31001,1.63672 -0.37691,2.01048 -2.83231,1.5411 -5.33568,-1.01998 -5.48741,2.08411 -0.33921,6.93949 5.24715,4.9487 5.87285,7.4137 2.68982,10.59673 -2.37411,2.37411 -11.94223,2.85867 -13.29292,0.6732 z m 78.93577,0.5252 c -0.45338,-0.45338 -0.45065,-6.08888 0.006,-12.52332 l 0.83042,-11.69899 -3.85872,-0.44042 c -4.81911,-0.55005 -5.0628,-2.96752 -0.35416,-3.51336 3.11478,-0.36107 3.60185,-1.13962 4.37926,-7 1.14289,-8.61552 3.44951,-8.4932 3.44951,0.18294 v 6.77668 l 6.20304,-0.44335 c 8.31469,-0.59427 9.31618,2.2968 1.11581,3.2211 -3.36448,0.37923 -6.45177,1.02403 -6.86063,1.43289 -0.40886,0.40886 -1.06489,5.89676 -1.45784,12.19533 -0.67328,10.79186 -1.53247,13.7308 -3.45277,11.8105 z m 128.80335,-1.35199 c -0.52995,-1.32981 -0.97572,-9.31784 -0.99059,-17.75117 l -0.027,-15.33334 h 15.66666 c 20.20581,0 21.86139,2.52071 2,3.04511 l -14.33333,0.37844 v 5.22169 5.22169 l 7.34867,0.39987 c 4.04177,0.21993 7.37112,0.99987 7.39857,1.7332 0.0274,0.73334 -3.2734,1.87953 -7.3352,2.54711 l -7.38509,1.21377 0.81572,6.94043 c 0.83573,7.11078 -1.21597,11.25734 -3.15838,6.3832 z M 161.4832,420.9467 c -2.01824,-3.77112 -1.51049,-10.51317 0.85014,-11.28831 1.12158,-0.36828 1.66666,0.98956 1.66666,4.15182 0,7.92649 5.72306,7.83801 6.07028,-0.0938 0.21053,-4.80931 2.72423,-5.37805 3.85512,-0.87225 1.97386,7.86451 -8.8109,14.88774 -12.4422,8.10259 z m 36.56543,0.44037 c -4.1608,-4.59762 0.39023,-14.72039 6.61804,-14.72039 3.56108,0 7.33334,3.90523 7.33334,7.59184 0,3.98849 -5.05336,9.74149 -8.55679,9.74149 -1.66645,0 -4.09402,-1.17582 -5.39459,-2.61294 z m 8.56488,-3.323 c 2.12543,-2.56098 1.25553,-6.59104 -1.53885,-7.12919 -2.55899,-0.49281 -5.6343,4.35021 -4.5525,7.16932 0.94011,2.44991 4.04176,2.42947 6.09135,-0.0401 z m 238.71984,3.93594 c -1.8242,-2.19801 -1.37217,-2.3818 5,-2.03293 5.34355,0.29256 5.65487,-2.01563 1.00163,-7.42635 -1.83244,-2.13073 -3.33244,-4.58119 -3.33334,-5.44548 -0.003,-3.08829 4.30237,-5.90895 8.39627,-5.50058 5.49483,0.54813 6.4551,3.73868 1.12524,3.73868 -5.56058,0 -6.66045,2.5287 -2.56073,5.88734 5.01028,4.10461 5.80551,8.09024 2.12813,10.66598 -3.8072,2.66666 -9.59185,2.72243 -11.7572,0.11334 z m 36.60606,-1.27272 c -3.87267,-3.87267 -3.99734,-5.08915 -1.03546,-10.10323 2.28231,-3.86364 6.71435,-5.86515 10.10575,-4.56374 1.45019,0.55648 2.17076,-1.3771 3.10595,-8.33453 1.59759,-11.88536 4.04891,-10.71632 3.37082,1.60756 -0.28244,5.13333 -0.58244,10.78392 -0.66666,12.55686 -0.21294,4.48274 -3.20036,5.03591 -4.77859,0.88485 -1.48683,-3.91067 -4.21118,-4.4146 -7.2793,-1.34648 -4.51788,4.51788 -0.50862,10.09908 5.34032,7.43413 4.16852,-1.89931 4.56444,-1.90015 4.56444,-0.01 0,2.06782 -4.12858,5.05265 -7.0606,5.10459 -1.31667,0.0233 -3.86667,-1.43032 -5.66667,-3.23032 z m 21.46321,1.22358 c -3.46826,-2.62295 -3.27643,-10.66963 0.34059,-14.28664 2.84502,-2.84503 8.90411,-3.55024 11.15592,-1.29843 3.4142,3.4142 -2.49923,9.35052 -8.4581,8.49084 -1.67485,-0.24163 -2.03916,0.39207 -1.47208,2.5606 0.65146,2.49116 1.44999,2.78828 5.89232,2.19244 5.65448,-0.75842 6.33416,-0.14443 2.80541,2.53427 -3.05806,2.32141 -7.03822,2.24653 -10.26406,-0.19308 z m 7.37311,-11.28419 c 0.67336,0 1.22429,-0.6 1.22429,-1.33333 0,-1.93059 -1.78127,-1.63948 -4.74517,0.77551 -2.36837,1.92975 -2.38075,2.04299 -0.14578,1.33333 1.34331,-0.42653 2.99331,-0.77551 3.66666,-0.77551 z m 55.98773,9.82019 c -3.64453,-4.63327 -3.48601,-7.95449 0.63775,-13.361 2.661,-3.48876 4.37096,-4.45919 7.85734,-4.45919 4.37229,0 6.0748,1.7176 6.0748,6.12865 0,2.33798 -8.02647,7.45098 -10.33333,6.5825 -2.11767,-0.79725 -2.15584,0.93301 -0.0667,3.02218 1.99568,1.99568 8.04644,2.08689 9.98284,0.15049 1.04379,-1.04379 1.73525,-0.98717 2.47037,0.20228 1.53053,2.47644 -3.15746,5.24723 -8.87794,5.24723 -3.79374,0 -5.64071,-0.83777 -7.74516,-3.51314 z m 8.46084,-10.62951 c 1.15998,-0.44512 2.10905,-1.38685 2.10905,-2.09273 0,-1.85399 -5.68757,-0.74573 -6.34001,1.23538 -0.59774,1.81504 0.92903,2.12442 4.23096,0.85735 z m 14.96369,11.19718 c -1.30453,-4.86995 -0.98177,-16.81858 0.47869,-17.72119 0.73334,-0.45323 1.33334,-0.11517 1.33334,0.75123 0,1.09909 0.50382,1.1628 1.66666,0.21076 0.91667,-0.75049 4.64997,-1.57396 8.29622,-1.82993 5.47135,-0.38409 6.71136,-0.0577 7.09777,1.86794 0.39552,1.97107 -0.55665,2.33333 -6.13296,2.33333 -8.13357,0 -9.7147,1.70622 -9.26967,10.00307 0.36209,6.75065 -2.02746,9.77011 -3.47005,4.38479 z m -231.52131,-1.05453 c -2.74323,-2.74322 -3.1969,-5.22153 -1.8647,-10.18643 0.92346,-3.4416 8.65806,-7.89523 11.69061,-6.73153 3.24536,1.24536 2.62371,3.58463 -0.9526,3.58463 -1.71967,0 -4.11967,1.09724 -5.33333,2.43832 -4.81994,5.32598 -1.17006,10.41439 6.4454,8.98573 5.1384,-0.96397 6.37169,0.91078 2.10227,3.19571 -4.05235,2.16875 -9.17797,1.62326 -12.08765,-1.28643 z m 71,1.2011 c -2.28999,-0.85124 -3,-2.16948 -3,-5.56996 0,-5.20977 2.12845,-8.33784 6.35679,-9.34223 4.0708,-0.96698 6.97654,2.21637 6.97654,7.64307 0,6.14707 -4.61612,9.39434 -10.33333,7.26912 z m 6.37895,-5.28633 c 1.08314,-2.02387 1.06976,-3.23748 -0.0506,-4.58741 -2.11542,-2.54893 -5.32837,-0.98534 -5.32837,2.59307 0,5.27346 3.02397,6.39465 5.37895,1.99434 z m -58.70188,-2.2481 c 0.01,-7.01699 0.31451,-7.8079 3.59915,-9.33333 1.97381,-0.91667 5.31913,-1.66667 7.43404,-1.66667 5.38504,0 3.95162,3.15687 -1.81625,4 -4.46344,0.65245 -4.56927,0.81592 -4.96369,7.66667 -0.28991,5.03544 -0.94476,7 -2.33333,7 -1.46228,0 -1.9278,-1.85895 -1.91992,-7.66667 z m 21.32293,-1.11111 c 0,-9.79101 3.15912,-9.32662 3.73634,0.54925 0.32243,5.51643 -0.0108,6.89519 -1.66666,6.89519 -1.62356,0 -2.06968,-1.60465 -2.06968,-7.44444 z m -274.43111,-9.29265 c 0.60303,-2.89615 2.96936,-3.07336 3.51061,-0.26291 0.28106,1.45947 -0.3729,2.33334 -1.74618,2.33334 -1.28097,0 -2.01595,-0.86245 -1.76443,-2.07043 z m 58.4311,-3.92957 c 0,-1.11112 1.18519,-2 2.66667,-2 1.48148,0 2.66667,0.88888 2.66667,2 0,1.11111 -1.18519,2 -2.66667,2 -1.48148,0 -2.66667,-0.88889 -2.66667,-2 z m 216.00001,-4.11112 c 0,-1.16111 0.7125,-1.87361 1.58333,-1.58333 2.4723,0.8241 2.88235,3.69445 0.52778,3.69445 -1.16111,0 -2.11111,-0.95 -2.11111,-2.11112 z m 68.91947,-20.76066 c -1.96679,-1.10067 -2.2528,-3.93879 -2.2528,-22.35453 v -21.0938 l -5.91468,-1.65601 c -6.19104,-1.73338 -8.45062,-4.50721 -6.03885,-7.41322 1.03584,-1.24811 2.58962,-1.38423 5.68087,-0.49767 2.34028,0.67119 4.61846,1.22034 5.06262,1.22034 0.44416,0 1.48902,-7.35 2.3219,-16.33334 1.63828,-17.67014 3.58456,-30.38854 5.45804,-35.66666 0.65075,-1.83334 2.18803,-6.63334 3.4162,-10.66667 2.10681,-6.91887 10.94774,-26.55456 12.60694,-28 0.42088,-0.36667 2.49974,-3.36667 4.61968,-6.66667 5.74227,-8.9387 22.78059,-25.86397 32.71122,-32.49419 10.14858,-6.77574 21.25483,-12.04082 33.19611,-15.73713 8.15744,-2.52505 8.51772,-2.53179 10.29093,-0.19267 2.63069,3.47026 2.51874,3.65877 -3.74431,6.30539 -31.79895,13.43744 -48.85914,26.67739 -63.80157,49.51467 -11.46656,17.52496 -15.2202,26.0978 -21.28129,48.60393 -1.91669,7.11706 -5.25048,29.96615 -5.25048,35.98565 v 5.34769 l 9,-0.10247 c 4.95,-0.0564 11.39427,-0.82398 14.3206,-1.70582 5.11762,-1.54217 5.35927,-1.872 6.33405,-8.64534 2.14264,-14.88837 14.94528,-26.92641 28.54186,-26.8373 7.40329,0.0485 9.78637,1.47056 13.05067,7.78766 2.17854,4.21596 2.18593,4.85731 0.11835,10.2712 -2.69703,7.06207 -9.49383,13.23645 -19.30469,17.53688 -12.31934,5.39997 -13.39586,6.06555 -13.34988,8.25383 0.084,3.99827 7.30524,12.57567 13.28904,15.78477 5.23638,2.80827 7.27271,3.13901 16,2.59871 14.83585,-0.91846 24.63825,-7.26309 28.16541,-18.23013 0.8335,-2.59159 1.97823,-5.31199 2.54386,-6.04533 0.56562,-0.73333 1.42196,-5.53333 1.90298,-10.66666 3.36419,-35.9018 7.16984,-45.30841 20.64653,-51.03293 6.48475,-2.75455 27.76719,-2.59024 46.17908,0.35652 15.61276,2.49876 19.93384,4.57193 16.51453,7.92335 -1.50656,1.47664 -3.79924,1.69136 -10.04025,0.94032 -16.78988,-2.02048 -39.65431,3.80931 -50.61244,12.90477 -7.72003,6.40777 -13.96636,20.1349 -13.96636,30.69289 0,6.98081 -4.11697,19.58218 -8.34688,25.54841 -5.41674,7.64024 -8.04421,9.85772 -16.57056,13.98493 -5.61491,2.71791 -8.92065,3.3484 -17.55612,3.3484 -17.41868,0 -28.44083,-6.73077 -35.16718,-21.47513 -2.42396,-5.31339 -3.55643,-6.51027 -5.6926,-6.0163 -1.46667,0.33915 -7.87848,1.03125 -14.24848,1.538 -6.64457,0.5286 -11.81695,1.56765 -12.13339,2.4374 -0.30336,0.83382 -0.63217,9.91603 -0.73069,20.1827 -0.0985,10.26667 -0.1885,19.05248 -0.19995,19.52402 -0.0395,1.62817 -3.52236,2.19428 -5.76802,0.93754 z m 54.93449,-61.46156 c 9.29508,-4.53711 14.81271,-10.02056 14.81271,-14.72097 0,-3.89683 -0.0934,-3.94864 -5.93101,-3.29066 -4.20402,0.47385 -7.06317,1.80068 -9.81925,4.55676 -6.48662,6.48662 -10.56307,16.45487 -6.72912,16.45487 0.83635,0 4.28635,-1.35 7.66667,-3 z m -437.187304,58.1906 c -16.268604,-5.09503 -26.950268,-13.41047 -32.970482,-25.66679 -3.290586,-6.69917 -3.695673,-8.9852 -3.695915,-20.85714 -2.92e-4,-14.3919 1.15083,-18.19013 9.092041,-30 13.523709,-20.11196 39.28152,-29.7268 62.03581,-23.15663 4.1462,1.19719 7.83855,2.54719 8.20521,3 1.31661,1.62593 6.94055,4.32719 7.61171,3.65603 0.37696,-0.37696 1.51294,-4.76853 2.52441,-9.75905 4.4511,-21.9614 6.20683,-31.08415 7.90491,-41.07369 0.99725,-5.86667 2.80445,-16.36667 4.016,-23.33333 1.21155,-6.96667 2.50754,-14.59565 2.87998,-16.95328 0.82683,-5.23397 3.36395,-7.55409 6.99901,-6.40037 3.1276,0.99266 3.6164,6.93324 1.31818,16.02031 -1.79993,7.11684 -4.95611,25.50776 -6.63584,38.66667 -0.74888,5.86667 -1.92275,14.56667 -2.6086,19.33333 -0.68585,4.76667 -1.95313,18.56667 -2.81617,30.66667 -1.81821,25.49156 -2.86231,27.97484 -8.59951,20.45299 -7.14035,-9.36149 -12.01784,-12.92925 -21.68733,-15.86373 -8.1658,-2.47814 -11.90023,-2.40529 -21.044666,0.41053 -9.017709,2.77679 -18.127027,10.29438 -21.99264,18.14972 -3.781912,7.68525 -3.858513,21.05493 -0.161626,28.20979 3.173949,6.14278 6.250972,8.96374 14.646579,13.42773 9.810953,5.21653 27.453203,4.27593 42.312273,-2.25591 12.43086,-5.46442 27.81757,-19.24592 34.23415,-30.66267 1.60796,-2.86098 3.75593,-5.20178 4.77328,-5.20178 2.8111,0 5.65385,3.4409 5.70448,6.90476 0.0249,1.70238 1.20452,5.49524 2.62143,8.42857 1.4169,2.93334 2.59727,5.93334 2.62305,6.66667 0.0258,0.73333 1.54614,3.07666 3.37857,5.20739 1.83244,2.13073 3.33171,4.29378 3.33171,4.80677 0,0.513 3.57605,4.63302 7.94678,9.15559 7.97197,8.24891 9.21241,12.16358 3.85429,12.16358 -2.87754,0 -4.20366,-0.95001 -12.22669,-8.75902 -7.48818,-7.28844 -9.94601,-10.4796 -13.55539,-17.59988 -2.94804,-5.81564 -3.10846,-5.92145 -4.63967,-3.06037 -4.04663,7.5612 -20.0359,23.63917 -26.83867,26.98756 -20.27755,9.98081 -42.90736,13.18504 -58.540654,8.28898 z m 157.373014,-7.96856 c -7.29647,-3.16479 -9.37301,-5.71617 -9.37301,-11.51634 0,-7.41601 3.15549,-12.46998 10.99135,-17.60423 5.00522,-3.27955 15.71078,-6.0713 23.34198,-6.08704 l 7,-0.0144 -0.0472,-5 c -0.12744,-13.48673 -13.23159,-20.29688 -25.9725,-13.49777 -2.92247,1.55956 -6.75061,4.55956 -8.50697,6.66667 -2.21335,2.65536 -4.41869,3.8311 -7.18598,3.8311 h -3.99259 l 0.83461,-15 c 1.64922,-29.64028 4.97528,-77.82253 5.91366,-85.66667 0.87944,-7.35152 1.24042,-8.03287 4.45335,-8.40546 1.98484,-0.23018 3.78737,0.35296 4.16954,1.34889 0.37027,0.96489 -0.14826,12.24734 -1.15228,25.07212 -1.00402,12.82478 -2.2242,33.11927 -2.71152,45.09887 l -0.88603,21.78108 5.1889,-2.78108 c 3.76136,-2.01597 7.61531,-2.78108 14.00859,-2.78108 7.58297,0 9.55614,0.53347 14.07162,3.80447 7.5177,5.4458 10.04425,9.97712 10.4254,18.69779 l 0.3277,7.49774 8.67179,0.38986 8.67179,0.38987 0.77835,-6.57196 c 1.3413,-11.32521 10.4358,-23.49636 21.32641,-28.54111 6.68487,-3.09656 19.28459,-3.0804 23.12402,0.0297 6.22033,5.03866 7.25719,10.96106 3.27216,18.69014 -5.5332,10.73182 -17.39703,18.52065 -33.78277,22.17904 -2.01667,0.45026 -3.66667,1.423 -3.66667,2.16166 0,3.24566 11.58336,12.67781 17.73278,14.43954 16.2561,4.65715 36.11241,-5.73028 46.04367,-24.08682 6.66152,-12.31288 8.15402,-29.68274 2.99387,-34.84289 -4.83519,-4.83519 1.46318,-7.24032 10.92299,-4.17112 19.91837,6.46245 36.72959,19.5672 43.2869,33.7432 4.85218,10.48973 5.04088,23.0735 0.44659,29.7801 -7.07591,10.32918 -22.35542,12.92868 -30.61912,5.20922 -3.25708,-3.04256 -4.13665,-4.96368 -4.12059,-9 0.0112,-2.82244 0.46122,-5.76649 1,-6.54234 1.90662,-2.74557 7.31085,-5.7119 9.13265,-5.01281 2.04369,0.78424 2.58039,7.0901 0.60345,7.0901 -2.089,0 -3.07794,5.33948 -1.37009,7.39732 0.89231,1.07516 3.87511,1.93601 6.70813,1.93601 11.52286,0 16.89767,-13.44222 10.57405,-26.44534 -4.03127,-8.28941 -16.24163,-20.07225 -25.46817,-24.57646 -4.10643,-2.00468 -8.03595,-3.64486 -8.73227,-3.64486 -0.69632,0 -1.03451,1.98317 -0.75154,4.40705 1.40822,12.0624 -5.33283,29.96724 -15.48336,41.12521 -13.61789,14.96945 -31.14631,20.47019 -48.47335,15.21181 -10.82847,-3.2862 -17.02584,-8.1567 -21.7298,-17.07741 l -2.63653,-5 H 291.28673 280.5132 l -2.29655,5.20527 c -3.51431,7.96534 -11.04912,15.69747 -18.93001,19.42573 -8.18146,3.87045 -10.20302,4.0238 -16.58029,1.25771 z m 11.93268,-8.54127 c 5.6819,-2.89869 13.34501,-10.3663 13.35481,-13.0141 0.003,-0.91667 0.60617,-1.66667 1.3395,-1.66667 0.73333,0 1.33333,-0.9 1.33333,-2 0,-4.68823 -17.13957,-0.40859 -23.98924,5.98995 -5.95213,5.56012 -4.87668,11.55964 2.37569,13.25314 0.21255,0.0496 2.72621,-1.10341 5.58591,-2.56232 z m 68.59532,-30.52259 c 11.31903,-4.31821 20.48457,-14.45087 18.87446,-20.86604 -0.70636,-2.81437 -1.60043,-3.29214 -6.1607,-3.29214 -11.05022,0 -25.28143,14.01477 -25.28143,24.89692 0,3.52475 1.64563,3.42802 12.56767,-0.73874 z M 165.74102,296.78212 C 162.48689,293.98304 162,292.6115 162,286.24394 c 0,-6.24027 0.53116,-7.81255 3.60008,-10.65673 5.59985,-5.18977 11.65166,-6.70899 17.30901,-4.3452 11.20851,4.68321 12.01766,17.78254 1.60441,25.9736 -5.05905,3.97945 -13.8789,3.77579 -18.77248,-0.43349 z m 13.44453,-6.50917 c 1.36343,-0.99696 2.45755,-3.67431 2.58817,-6.33333 0.20845,-4.24316 -0.0777,-4.60628 -3.62982,-4.60628 -4.80869,0 -9.15083,5.26603 -7.97072,9.66667 0.91528,3.41305 5.24856,4.02511 9.01237,1.27294 z m 160.81446,-68.44121 c -10.26321,-0.81456 -25.59554,-4.71464 -35.33333,-8.98773 -5.13334,-2.25258 -9.53334,-4.56399 -9.77778,-5.13647 -0.24445,-0.57248 -1.26267,-1.04087 -2.26273,-1.04087 -2.40097,0 -18.17027,-11.98914 -24.10524,-18.32683 -19.1819,-20.48348 -28.72474,-48.76475 -26.57267,-78.75101 0.84636,-11.792771 5.02893,-31.347563 7.324,-34.241904 0.58742,-0.740808 1.49881,-2.75016 2.02529,-4.465227 2.26021,-7.362762 11.46244,-20.305116 21.4834,-30.215031 13.4251,-13.276333 12.82212,-12.822715 26.18558,-19.699063 19.31069,-9.93657 32.54318,-13.9072625 51.97001,-15.5947055 19.65322,-1.7071082 44.69321,1.3699487 54.71205,6.7233275 1.27338,0.680409 3.07338,1.240036 4,1.243616 3.94515,0.01524 30.42944,15.330718 33.23709,19.220522 0.48712,0.674866 3.11484,3.790856 5.83937,6.924422 6.01538,6.918455 8.56214,11.342086 15.26531,26.515215 3.68222,8.334976 5.34299,18.829947 5.34299,33.764188 0,34.56078 -11.32715,60.72303 -37.74402,87.17714 -7.73091,7.74181 -23.33022,19.72534 -25.67705,19.72534 -0.92952,0 -1.89005,0.45 -2.13449,1 -0.472,1.062 -9.77357,5.63816 -16.44445,8.09029 -12.42196,4.56617 -33.02507,7.21038 -47.33333,6.07478 z m 28,-14.52668 c 5.5,-1.11435 11.2,-2.53541 12.66667,-3.15791 12.82284,-5.44242 17.39739,-7.6246 17.77778,-8.48048 0.24444,-0.55 1.01874,-1 1.72065,-1 3.524,0 20.54991,-14.54617 30.54585,-26.09699 4.24351,-4.90361 16.6892,-25.42704 18.58694,-30.65061 0.78309,-2.15549 1.99064,-5.11907 2.68342,-6.58573 2.20805,-4.67455 4.25974,-16.95627 4.94193,-29.58318 0.92803,-17.17728 -1.89163,-28.836971 -9.87926,-40.852086 l -6.13438,-9.227413 -7.18434,0.741489 c -13.50724,1.39407 -24.367,11.010698 -27.36065,24.228632 -0.83992,3.708489 -0.53221,10.808917 0.99899,23.052052 1.32116,10.563696 1.84993,20.502866 1.31227,24.666666 -1.69964,13.16272 -8.92514,23.20506 -20.67587,28.7363 -10.12964,4.76818 -25.7188,4.89647 -34.94716,0.2876 -8.72515,-4.35755 -19.71951,-15.39844 -19.71951,-19.80297 0,-1.46552 -1.09654,-1.64874 -5,-0.83548 -2.75,0.57294 -8,1.38972 -11.66666,1.81505 -6.24022,0.72387 -6.68944,1.02921 -7.02265,4.77334 -0.56108,6.30451 -4.26447,19.45198 -7.26737,25.80005 -2.89248,6.11462 -14.50364,18.86662 -17.17874,18.86662 -4.72662,0 19.11625,14.74126 31.46876,19.45609 14.99221,5.72239 34.7683,7.2052 51.33333,3.84896 z m -85.85875,-35.58909 c 7.13637,-4.88992 16.52542,-23.31484 16.52542,-32.42923 0,-2.99292 -0.52182,-3.28674 -5.83717,-3.28674 -11.74683,0 -26.84016,8.36551 -29.5655,16.38673 -1.30449,3.83939 9.57535,22.27994 13.14508,22.27994 0.78425,0 3.36373,-1.32781 5.73217,-2.9507 z m 96.48084,-27.29932 c 8.64225,-3.21697 15.54537,-11.04053 17.51759,-19.8533 1.36267,-6.08908 1.23094,-8.73062 -0.90651,-18.17721 -1.41601,-6.25819 -2.5151,-16.258305 -2.53369,-23.052804 -0.0379,-13.872002 1.865,-18.944728 10.54144,-28.100709 5.73176,-6.048564 19.85241,-13.899292 24.99984,-13.899292 5.69392,0 -9.63065,-9.192212 -28.90742,-17.339671 -12.00754,-5.075068 -42.01103,-6.88002 -58.0005,-3.489198 -16.18719,3.43275 -24.15733,6.594678 -38.79869,15.392288 l -7.46584,4.486031 2.65542,6.808608 c 6.08051,15.590692 11.10923,40.344737 12.32126,60.651837 L 311.00931,124 h 4.99535 c 2.74744,0 6.72035,-0.34576 8.82868,-0.76836 l 3.83334,-0.76837 0.11805,-10.8983 c 0.16888,-15.591177 4.50222,-23.996258 16.51196,-32.027152 1.81317,-1.212465 5.81701,-2.204482 8.89743,-2.204482 13.96418,0 19.98423,19.711011 10.53905,34.507214 -3.91787,6.13748 -7.90394,9.78152 -15.23983,13.93215 l -5.83999,3.30427 6.32277,6.75956 c 4.44038,4.74712 8.16384,7.32418 12.50667,8.65603 8.26977,2.53616 9.13301,2.5321 16.13931,-0.0759 z M 263.98845,133.19711 c 2.99698,-3.54789 19.56812,-7.86377 30.19355,-7.86377 5.63679,0 5.82381,-0.13498 6.00438,-4.33334 0.53577,-12.45738 -2.37576,-37.116383 -4.96937,-42.087653 -1.02698,-1.968456 -1.87094,-4.422377 -1.87545,-5.453157 -0.0169,-3.849781 -11.90257,-17.459188 -15.24788,-17.459188 -0.97291,0 -4.092,3.45 -6.9313,7.666667 -2.83931,4.216666 -5.61237,7.866667 -6.16237,8.111111 -0.55,0.244445 -1.0037,1.144445 -1.00822,2 -0.005,0.855556 -0.77776,3.055556 -1.71833,4.888889 -2.4886,4.850741 -5.92903,14.63747 -6.99556,19.899766 -1.17082,5.776855 -1.11727,29.159015 0.0831,36.263655 l 0.90912,5.38104 3.52008,-3.10556 c 1.93604,-1.70806 3.82528,-3.46687 4.1983,-3.90846 z m 85.25832,-21.11053 c 2.88571,-2.88572 5.8567,-7.45579 6.60219,-10.15573 2.49617,-9.040394 -1.22764,-16.432862 -6.19929,-12.306758 -7.72253,6.409131 -13.12253,27.709248 -7.02484,27.709248 0.75635,0 3.73622,-2.36104 6.62194,-5.24676 z"
       id="path1" />
  </g>
</svg>
