<?xml version="1.0" encoding="UTF-8" standalone="no"?>
<!-- Created with Inkscape (http://www.inkscape.org/) -->

<svg
   width="45mm"
   height="45mm"
   viewBox="0 0 45 45"
   version="1.1"
   id="svg1"
   xml:space="preserve"
   xmlns="http://www.w3.org/2000/svg"
   xmlns:svg="http://www.w3.org/2000/svg"><defs
     id="defs1" /><g
     id="layer1"
     transform="translate(23.771282,-67.556409)"><path
       style="fill:#000000"
       d="m 5.9577092,144.32636 c -0.2317,-0.11192 -0.307931,-0.4769 -0.155362,-0.74383 0.33134,-0.57971 0.312829,-1.59887 -0.04978,-2.74093 -0.135641,-0.42721 -0.659878,-1.37103 -1.046213,-1.88357 -0.250252,-0.33201 -0.370631,-0.68778 -0.371186,-1.09703 -5.25e-4,-0.38693 -5.25e-4,-0.38693 -0.167859,-0.38768 -0.483145,-0.002 -1.188743,-0.2671 -1.380292,-0.51823 -0.186848,-0.24497 -0.08691,-0.69343 0.154766,-0.69447 0.559986,-0.002 0.975123,-0.63913 1.102623,-1.69115 0.09638,-0.79527 0.321341,-1.40237 0.689305,-1.86025 0.129642,-0.16132 0.129642,-0.16132 -0.10912,-0.38606 -0.441692,-0.41574 -1.512867,-1.6177 -1.904047,-2.13653 -0.949861,-1.25982 -1.75961796,-3.50076 -2.02625496,-5.6075 -0.02512,-0.19847 -0.02512,-0.19847 -0.304966,0.0267 -0.765373,0.61573 -2.45892304,1.41398 -3.90197104,1.83917 -1.840295,0.54224 -2.94807,0.6233 -4.631597,0.33892 -0.784113,-0.13245 -0.756525,-0.1095 -0.526697,-0.43828 1.339455,-1.91617 1.961104,-3.93284 1.114457,-3.61536 -1.503886,0.56394 -4.3721642,0.61921 -5.9682282,0.11501 -1.373555,-0.4339 -3.31669,-1.90474 -2.763083,-2.09149 1.196982,-0.40377 2.307258,-1.24138 2.852772,-2.15218 0.255361,-0.42635 0.24487,-0.45917 -0.184173,-0.5761 -1.477256,-0.40263 -2.204446,-0.72838 -3.702866,-1.6587 -2.315971,-1.43791 -3.170129,-2.36198 -4.035288,-4.36557 -0.123309,-0.28556 -0.219394,-0.52352 -0.213522,-0.52879 0.0059,-0.005 0.189513,0.0164 0.408093,0.0483 1.028247,0.14971 1.892164,0.11058 2.502563,-0.11337 0.130636,-0.0479 0.397533,-0.14201 0.593104,-0.20908 0.308682,-0.10586 0.874608,-0.42927 0.877505,-0.50147 5.47e-4,-0.0136 -0.282829,-0.2364 -0.629726,-0.49499 -4.034801,-3.00781 -6.590379,-8.33362 -5.812805,-12.113863 0.190763,-0.92741 1.214358,-3.126184 1.214358,-2.608549 0,1.033735 0.7281,2.064722 1.911539,2.706732 0.821698,0.445769 2.816835,-0.281002 3.956537,-1.441251 0.728114,-0.74124 1.226701,-1.683489 1.724275,-3.2586 0.130829,-0.41415 0.338591,-1.0542 0.461692,-1.422333 0.342743,-1.024969 0.798309,-2.535886 1.072141,-3.555835 0.772731,-2.878208 1.395735,-4.375872 2.822621,-6.785406 0.8855912,-1.49547 1.7036472,-2.426949 3.3203662,-3.780739 0.697131,-0.583756 1.569352,-1.043708 2.635501,-1.389792 1.633282,-0.530181 2.539226,-0.540607 4.10830604,-0.04728 0.05709,0.01795 0.08541,-0.02619 0.141361,-0.220338 0.587388,-2.038045 2.59671396,-4.694552 4.48434096,-5.928697 1.734005,-1.133706 2.197577,-1.383252 3.334911,-1.795218 0.41415,-0.150014 0.876297,-0.319629 1.026993,-0.376921 0.300413,-0.114215 1.379812,-0.362289 2.0059238,-0.461015 0.667361,-0.10523 3.371123,-0.21115 3.744084,-0.146674 0.115042,0.01989 0.538605,0.08439 0.941251,0.143336 3.404807,0.49846 6.745789,1.907488 9.08534,3.831656 0.107666,0.08855 0.213395,0.160999 0.234955,0.160999 0.314114,0 2.727176,2.942029 3.352591,4.087512 0.148115,0.271282 0.400472,0.709375 0.560792,0.973541 0.907,1.494501 1.57326,2.978647 1.997668,4.449964 0.300737,1.042578 1.215799,3.180855 1.83972,4.298974 0.21031,0.376894 0.444204,0.807625 0.519763,0.957179 2.046945,4.051497 7.908416,4.700075 9.958889,1.101961 0.211212,-0.370629 0.179059,-0.400922 0.451051,0.424956 0.47438,1.440412 0.567928,2.208654 0.481386,3.953251 -0.04862,0.980205 -0.375179,2.881259 -0.600027,3.493084 -0.03382,0.09203 -0.127089,0.406964 -0.207258,0.699847 -0.263591,0.962972 -1.072708,2.654517 -1.796325,3.755404 -0.189043,0.287605 -0.481528,0.748815 -0.649967,1.024915 -1.085684,1.77962 -1.4618,2.18451 -3.593714,3.86864 -0.130409,0.10302 -0.485943,0.39831 -0.790075,0.6562 -0.304132,0.25789 -0.805262,0.63936 -1.113623,0.84771 -0.732696,0.49506 -0.712761,0.46429 -0.416354,0.64271 0.323897,0.19497 0.667761,0.365 1.144324,0.56582 0.217133,0.0915 0.559836,0.24467 0.761564,0.34037 0.50945,0.24171 1.42,0.43866 2.429154,0.52543 0.399532,0.0344 0.40192,0.0625 0.04966,0.58512 -2.055636,3.04989 -5.629615,5.38623 -8.633202,5.6436 -0.29143,0.025 -0.282017,-0.007 -0.152169,0.51333 0.321672,1.2885 0.993761,2.51101 1.950764,3.54841 0.148578,0.16106 0.363121,0.41519 0.476764,0.56475 0.113642,0.14955 0.4224,0.49436 0.686128,0.76625 0.571391,0.58906 0.575788,0.54751 -0.08979,0.84826 -1.196028,0.54044 -2.112955,0.75399 -4.291809,0.99954 -1.855084,0.20906 -3.865458,-0.1143 -5.318171,-0.85542 -0.617487,-0.31502 0.388172,3.09502 1.434875,4.86544 0.210641,0.35629 0.02649,0.40357 -1.354403,0.34773 -3.221352,-0.13026 -5.127107,-0.71734 -6.960052,-2.1441 -0.280725,-0.21852 -0.298722,-0.22635 -0.309895,-0.13489 -0.22326,1.8276 -1.754156,5.1567 -3.266886,7.10419 -0.826388,1.06389 -1.150619,1.47428 -1.351327,1.7104 -0.195741,0.23027 -0.195741,0.23027 -0.113689,0.3455 0.424527,0.5962 0.477251,1.65167 0.137617,2.75494 -0.195643,0.63552 -0.04996,1.19525 0.431477,1.65778 0.648183,0.62273 -0.03246,1.17294 -1.485006,1.20044 -0.439866,0.008 -0.402487,-0.028 -0.447513,0.43513 -0.11273,1.15954 -1.0210588,3.33384 -1.7107208,4.09501 -0.742312,0.81928 -2.077526,1.37148 -2.648857,1.09548 z m 0.991118,-1.2751 c 0.693208,-0.46684 1.031243,-1.11581 1.129176,-2.16783 0.0257,-0.2761 0.07499,-0.81261 0.109535,-1.19225 0.168732,-1.85444 0.622077,-2.6168 1.307214,-2.19826 0.5430538,0.33175 1.4545218,0.51898 1.3066848,0.26842 -0.244765,-0.41485 -0.273037,-1.16358 -0.0693,-1.83516 0.322895,-1.06433 0.328011,-1.0874 0.306822,-1.38354 -0.03093,-0.43226 -0.486425,-1.16829 -0.723003,-1.16829 -0.4888708,0 -0.3892638,-0.53588 0.167801,-0.90276 1.018286,-0.67063 2.751638,-3.21763 3.599125,-5.28858 0.10828,-0.26459 0.250882,-0.58823 0.316893,-0.71918 0.773553,-1.53461 1.217144,-4.02351 1.062182,-5.95969 -0.09452,-1.18098 -0.04599,-1.09897 -0.428591,-0.7243 -0.804856,0.7882 -1.598796,1.20221 -2.576554,1.34358 -2.125025,0.30725 -2.8889048,-2.50012 -1.153237,-4.23831 0.494353,-0.49507 0.488103,-0.54299 -0.144367,-1.1067 -1.5311588,-1.3647 -3.7035878,-1.39247 -4.9731998,-0.0636 -0.429546,0.4496 -0.448591,0.48983 -0.267724,0.5654 0.285365,0.11923 0.854962,0.93113 1.07839,1.53713 0.437087,1.1855 -0.06981,2.36956 -1.35332,3.16121 -0.940309,0.57998 -2.51527,0.10886 -3.224286,-0.96448 -0.106914,-0.16185 -0.106914,-0.16185 -0.191111,0.11075 -0.680237,2.20235 -0.353426,5.56854 0.755833,7.78518 0.627854,1.25464 1.763316,2.84912 2.734618,3.84009 0.67228,0.6859 0.68198,0.73883 0.225589,1.23105 -0.392222,0.42301 -0.468554,0.59034 -0.646275,1.41672 -0.154355,0.71774 -0.322878,1.26756 -0.497516,1.6232 -0.108184,0.22031 -0.05277,0.23353 0.365898,0.0873 0.5921,-0.20687 0.744005,0.0199 0.5339,0.79717 -0.188918,0.69885 -0.07308,1.3793 0.543741,3.19395 0.495982,1.45916 0.668837,2.68321 0.432836,3.06507 -0.0485,0.0785 0.04578,0.0393 0.272242,-0.11326 z m -12.34044,-17.65105 c 2.524117,-0.37169 6.00074004,-2.14962 6.12611904,-3.13286 0.181708,-1.42497 0.37611096,-2.1978 0.75759496,-3.01176 0.479839,-1.0238 0.801306,-1.07155 1.451651,-0.2156 0.542754,0.71433 0.694293,0.81188 1.374374,0.88471 1.627043,0.17425 2.345856,-2.26227 0.852331,-2.88909 -0.514174,-0.21579 -0.213599,-1.09656 0.656408,-1.92345 1.529238,-1.45346 3.563938,-1.42625 5.7006648,0.0762 1.468503,1.0326 1.646033,1.36003 0.969173,1.78751 -0.802045,0.50654 -1.031498,1.31023 -0.614469,2.15226 0.441615,0.89167 1.801304,0.68947 3.098991,-0.46086 0.621027,-0.55051 0.922509,-0.4988 1.068199,0.18323 0.03776,0.17677 0.104115,0.45317 0.147453,0.61423 0.156422,0.58131 0.271076,1.70266 0.30155,2.94925 0.0097,0.39742 0.0097,0.39742 0.511715,0.64984 2.454846,1.23438 5.978337,2.1509 5.811405,1.51165 -0.288438,-1.10455 -0.378804,-2.58765 -0.206819,-3.39433 0.231894,-1.08768 0.378725,-1.20783 1.151746,-0.94241 2.121907,0.72857 5.184093,0.745 7.333015,0.0394 0.610914,-0.20061 0.578106,-0.16747 0.379856,-0.38371 -1.329406,-1.45004 -2.350012,-3.88636 -2.218413,-5.29563 0.05883,-0.62997 0.283892,-0.83231 1.357895,-1.22078 1.27694,-0.46188 2.750178,-1.1734 3.39657,-1.64043 0.19557,-0.1413 0.600308,-0.42559 0.899416,-0.63175 0.676127,-0.46603 0.969065,-0.69546 1.526919,-1.19589 0.727838,-0.65292 0.682183,-0.56481 0.349699,-0.67488 -1.634144,-0.54097 -3.647036,-1.94506 -3.939899,-2.74827 -0.16226,-0.44501 -0.116173,-0.51198 0.524081,-0.76149 1.589331,-0.61938 3.638024,-1.99593 4.622426,-3.10587 1.893394,-2.13486 3.468681,-4.956948 4.129048,-7.397077 0.423358,-1.56435 0.769507,-5.530527 0.470211,-5.387666 -0.09835,0.04695 -0.473706,0.290779 -0.670767,0.435737 -2.879466,2.118132 -7.293576,0.387835 -10.328214,-4.048579 -0.546367,-0.798746 -1.209934,-2.350013 -1.724116,-4.030579 -0.175487,-0.573567 -0.299625,-0.903019 -0.394765,-1.047672 -0.145295,-0.220908 -0.285654,-0.525979 -0.54769,-1.190411 -0.492907,-1.24984 -2.835254,-5.184819 -3.689684,-6.19841 -0.554159,-0.657387 -2.683107,-2.195545 -4.508752,-3.25756 -1.590009,-0.924939 -5.234278,-2.234536 -5.716726,-2.05435 -0.05971,0.0223 -0.36005,0.01302 -0.767442,-0.02371 -1.49852,-0.135129 -3.850784,0.301591 -5.7939478,1.075699 -2.213573,0.881833 -3.845693,2.134539 -5.256374,4.034439 -1.722179,2.319426 -2.56790296,6.720349 -1.853489,9.645063 0.364715,1.493093 1.408374,3.518671 2.323433,4.509416 0.370464,0.401106 0.364046,0.39952 0.287255,0.07099 -0.312171,-1.335542 0.234856,-2.475794 1.320885,-2.753324 0.228817,-0.05847 0.22911,-0.05876 0.266213,-0.259361 0.04203,-0.227237 0.06329,-0.201221 -0.358131,-0.438221 -1.247038,-0.701312 -1.83547,-2.537494 -1.013976,-3.164078 0.862729,-0.658036 2.189443,0.831382 2.191929,2.46074 7.01e-4,0.459886 -0.0087,0.455344 0.586854,0.283543 1.004619,-0.289807 1.253626,-1.11206 0.668963,-2.209 -0.321118,-0.602493 -0.585172,-0.83691 -1.610782,-1.430002 -1.064138,-0.615372 -1.186759,-0.70233 -1.678052,-1.190006 -1.329284,-1.319498 -1.458688,-3.060964 -0.350282,-4.713967 0.486526,-0.725574 0.598808,-0.825155 0.463333,-0.410923 -0.668927,2.045338 0.404411,4.949716 2.184202,5.910298 0.473624,0.255623 0.604889,0.346724 0.881005,0.611441 1.789119,1.715256 1.320576,3.907143 -0.895965,4.191402 -0.318512,0.04085 -0.370184,0.05885 -0.390936,0.136179 -0.04845,0.180548 -0.02848,0.224024 0.113512,0.247065 0.973613,0.157996 1.994501,1.804458 1.62991,2.628677 -0.629978,1.42417 -2.443578,0.327941 -2.551232,-1.542091 -0.02765,-0.48034 -0.03823,-0.491737 -0.288177,-0.31047 -0.98536,0.714605 -0.742106,2.303891 0.544176,3.555348 0.808405,0.786517 1.532102,0.704156 3.225006,-0.367027 0.375599,-0.237659 0.592646,-0.398807 1.3372018,-0.992811 0.830931,-0.662913 2.122551,-1.43899 2.699715,-1.622139 0.126546,-0.04016 0.434953,-0.14728 0.685349,-0.238054 6.841158,-2.48006 14.420663,2.230685 15.256017,9.481781 0.311149,2.700849 -0.75896,6.5608 -2.731234,9.85175 -1.259525,2.10165 -1.669248,2.67156 -3.24811,4.518 -0.108207,0.12655 -0.317731,0.38068 -0.465608,0.56475 -0.400313,0.49828 -0.909652,1.05561 -2.066601,2.26133 -1.646561,1.71597 -1.934347,2.17922 -1.562686,2.5155 0.943903,0.85404 4.825629,-1.54721 7.148258,-4.42194 0.195499,-0.24197 0.536088,-0.67495 0.756864,-0.96217 0.220777,-0.28722 0.517123,-0.654 0.658547,-0.81505 0.357404,-0.40703 1.2641,-1.77848 2.364668,-3.57676 0.119692,-0.19557 0.34742,-0.59624 0.506062,-0.89039 0.158643,-0.29414 0.294331,-0.51713 0.30153,-0.49554 0.07154,0.21463 -0.667462,2.29193 -1.161583,3.26517 -0.541871,1.06729 -2.474392,3.69964 -3.857772,5.2548 -1.042648,1.17212 -2.768758,2.65365 -3.924198,3.36816 -0.195571,0.12094 -0.489744,0.31016 -0.653718,0.42048 -0.72946,0.49078 -1.078881,0.63812 -1.322485,0.55763 -1.370734,-0.45286 -3.734556,-1.71073 -3.532103,-1.87955 0.394177,-0.3287 0.987411,-0.80554 1.581911,-1.27154 0.382905,-0.30013 0.891376,-0.72039 1.129935,-0.93391 0.23856,-0.21352 0.555912,-0.49553 0.705227,-0.62668 0.974403,-0.85586 2.737689,-2.71568 3.36306,-3.54717 0.181818,-0.24175 0.441512,-0.57558 0.577097,-0.74185 1.514753,-1.85759 3.587775,-5.87467 4.08807,-7.92181 1.032451,-4.224679 0.235753,-7.338733 -2.652276,-10.366965 -1.672285,-1.753468 -4.4547,-3.235424 -6.377352,-3.396672 -3.669404,-0.307744 -5.771593,0.483143 -7.906419,2.97456 -2.0875138,2.436202 -2.6931818,2.62076 -4.8139508,1.466901 -0.287604,-0.156478 -0.664104,-0.360289 -0.836667,-0.452911 -0.747417,-0.401175 -1.640505,-1.014505 -2.502888,-1.718863 -1.090204,-0.890431 -1.274427,-0.986944 -1.82508796,-0.956143 -1.541361,0.08622 -2.75946404,0.572682 -4.24785904,1.696442 -1.446539,1.092157 -2.333617,2.207873 -3.319621,4.175229 -1.749376,3.490499 -1.55501,7.791042 0.541026,11.970742 0.81596,1.6271 1.653672,3.18395 1.816367,3.37564 0.03906,0.046 0.134254,0.19661 0.211548,0.33466 0.302523,0.54032 0.959742,1.4937 1.443521,2.09402 0.279168,0.34642 0.645281,0.83587 0.813584,1.08767 0.42754,0.63964 1.13390404,1.57369 1.89637704,2.50765 0.754306,0.92395 0.813192,0.77081 -0.495385,1.28829 -1.19197504,0.47136 -1.72060904,0.61011 -2.83378504,0.74376 -0.462808,0.0556 -0.660983,-0.0774 -1.552731,-1.04214 -2.85176,-3.08505 -4.278545,-5.49764 -5.1705322,-8.74297 -0.214545,-0.78059 -0.210855,-0.7873 0.124075,-0.22559 0.5183442,0.86931 1.0145732,1.66743 1.3583542,2.18473 0.191132,0.2876 0.493547,0.76764 0.672035,1.06675 0.943398,1.58093 2.142168,3.1964 2.934772,3.95489 1.122882,1.07456 2.646621,1.78106 3.005688,1.39362 0.430594,-0.46462 0.08027,-1.38586 -1.34188,-3.52876 -0.468087,-0.70531 -1.188574,-1.85095 -1.683773,-2.67733 -0.172342,-0.28761 -0.487677,-0.79588 -0.700745,-1.1295 -0.213068,-0.33363 -0.462784,-0.75719 -0.554925,-0.94125 -0.157775,-0.31519 -0.276506,-0.53108 -1.07711,-1.95852 -1.189834,-2.12141 -1.784176,-4.93121 -1.523609,-7.202983 0.299701,-2.612957 0.645836,-3.701811 1.845784,-5.806383 1.107647,-1.942686 2.134939,-3.085018 3.695548,-4.109386 0.612136,-0.4018 0.839916,-0.524847 2.112584,-1.141225 0.96311004,-0.466452 1.23689104,-0.659317 1.28014604,-0.901802 0.09527,-0.534084 -0.0724,-2.051886 -0.379559,-3.435874 -0.150142,-0.676503 -0.267575,-1.550562 -0.299778,-2.231266 -0.07854,-1.660196 -3.90176804,-1.787446 -6.64572704,-0.221193 -1.724236,0.984194 -3.9176232,5.004662 -5.1625862,9.462994 -0.138666,0.496577 -0.381903,1.277814 -0.540527,1.736084 -0.165527,0.478214 -0.34558,1.10057 -0.422598,1.460716 -0.198423,0.927863 -0.415349,1.791589 -0.556843,2.217168 -1.154485,3.472402 -5.116494,5.35593 -7.735281,3.677329 -0.16248,-0.104147 -0.299673,-0.183501 -0.304873,-0.176343 -0.306483,0.421853 0.882655,4.926684 1.81444,6.873674 0.713817,1.49155 2.539355,3.82599 3.667862,4.69036 0.83199,0.63725 -0.297228,1.91761 -2.276016,2.58065 -0.167797,0.0562 -0.312724,0.10986 -0.32206,0.1192 -0.07598,0.076 1.120668,1.42719 1.734338,1.95834 1.20557,1.04347 2.043263,1.51724 3.630375,2.0532 1.561352,0.52726 1.833047,0.7463 1.738635,1.40164 -0.135736,0.94219 -1.06632,2.24484 -2.002001,2.80243 -0.06037,0.036 0.01615,0.0787 0.427859,0.2387 1.128223,0.43855 2.17,0.65869 3.264869,0.68991 1.1045602,0.0315 1.5303862,-0.0245 2.7696612,-0.36427 0.647513,-0.17751 1.154507,-0.0389 1.387986,0.37933 0.192235,0.34439 0.03887,2.49269 -0.232249,3.2534 -0.03588,0.10068 -0.06524,0.20101 -0.06524,0.22296 0,0.049 0.332834,0.0177 1.254999,-0.11806 z M -10.49528,106.41276 c 0,-0.0115 0.0094,-0.0209 0.02092,-0.0209 0.0115,0 0.02092,0.009 0.02092,0.0209 0,0.0115 -0.0094,0.0209 -0.02092,0.0209 -0.0115,0 -0.02092,-0.009 -0.02092,-0.0209 z M 5.3386402,96.037645 c -0.62885,-0.147519 -1.525282,-0.448404 -2.556484,-0.858077 -3.05144896,-1.212271 -6.207058,-1.506334 -8.780352,-0.81822 -0.442666,0.118371 -0.402334,0.130294 -0.343498,-0.10154 0.370769,-1.460964 6.07358204,-2.863909 9.19125,-2.261133 1.825403,0.352928 2.70473,0.658002 3.587782,1.244748 2.219206,1.474555 1.463932,3.395376 -1.098698,2.794222 z m 0.927306,-0.592191 c -0.01534,-0.01534 -0.04044,-0.01534 -0.05578,0 -0.01534,0.01534 -0.0028,0.02789 0.02789,0.02789 0.03068,0 0.04323,-0.01255 0.02789,-0.02789 z m 6.4690518,0.609316 c -0.910328,-0.349984 -0.957749,-1.390855 -0.10242,-2.248074 0.896128,-0.898109 2.014662,-1.371392 4.272981,-1.808021 3.117668,-0.602776 8.820482,0.800169 9.19125,2.261133 0.05884,0.231834 0.09917,0.219911 -0.343498,0.10154 -2.573294,-0.688114 -5.728903,-0.394051 -8.780352,0.81822 -2.226379,0.884489 -3.519302,1.151497 -4.237961,0.875202 z m 0.809949,-0.609316 c -0.01534,-0.01534 -0.04044,-0.01534 -0.05578,0 -0.01534,0.01534 -0.0028,0.02789 0.02789,0.02789 0.03068,0 0.04323,-0.01255 0.02789,-0.02789 z M 7.2508812,87.52262 c 0.395626,-0.395626 -0.460109,-1.835416 -1.092342,-1.837887 -0.42039,-0.0016 0.180228,1.594938 0.703139,1.869107 0.233211,0.122275 0.235926,0.122057 0.389203,-0.03122 z m -1.557276,-3.982238 c -0.0021,-0.902812 -0.848017,-2.219249 -1.159812,-1.805003 -0.297633,0.395432 0.191222,1.456768 0.886732,1.925152 0.273984,0.184512 0.273801,0.184592 0.27308,-0.120149 z"
       id="path1" /></g></svg>
