<svg version="1.1" viewBox="0.0 0.0 960.0 540.0" fill="none" stroke="none" stroke-linecap="square" stroke-miterlimit="10" xmlns:xlink="http://www.w3.org/1999/xlink" xmlns="http://www.w3.org/2000/svg"><clipPath id="p.0"><path d="m0 0l960.0 0l0 540.0l-960.0 0l0 -540.0z" clip-rule="nonzero"/></clipPath><g clip-path="url(#p.0)"><path fill="#000000" fill-opacity="0.0" d="m0 0l960.0 0l0 540.0l-960.0 0z" fill-rule="evenodd"/><path fill="#eeff41" d="m697.9438 515.78406l-118.57092 -59.61389c-143.8858 34.12494 -303.1203 -10.196045 -367.87097 -102.392365c-64.75069 -92.19632 -13.826721 -202.09505 117.64693 -253.89322c131.4737 -51.798176 300.46985 -28.543877 390.4229 53.723175c89.953125 82.26706 71.424255 196.62344 -42.806152 264.19153z" fill-rule="evenodd"/><path stroke="#000000" stroke-width="12.0" stroke-linejoin="round" stroke-linecap="butt" d="m697.9438 515.78406l-118.57092 -59.61389c-143.8858 34.12494 -303.1203 -10.196045 -367.87097 -102.392365c-64.75069 -92.19632 -13.826721 -202.09505 117.64693 -253.89322c131.4737 -51.798176 300.46985 -28.543877 390.4229 53.723175c89.953125 82.26706 71.424255 196.62344 -42.806152 264.19153z" fill-rule="evenodd"/></g></svg>